<svg xmlns="http://www.w3.org/2000/svg" xmlns:xlink="http://www.w3.org/1999/xlink" width="299.1" height="300" viewBox="0 0 299.1 300"><defs><path id="g" fill="#9e9e9e" d="m159.2 135-12.4-6.7.2.1 12.4 6.8Z"/><path id="k" fill="#363636" d="m59.2 57.2-12.4-6.8a6.5 6.5 0 0 0 .4-2.1 4.9 4.9 0 0 0-2.4-4.4l12.4 6.7a4.8 4.8 0 0 1 2.3 4.4 6.3 6.3 0 0 1-.3 2.2Z"/></defs><defs><mask id="a" width="40.8" height="17.4" x="131.3" y="185.6" maskUnits="userSpaceOnUse"><path fill="#fff" d="M143 196a23 23 0 0 0 16.7-10.4l12.4 6.7a23 23 0 0 1-16.6 10.4 18.5 18.5 0 0 1-11.7-1.8l-12.4-6.7A18.5 18.5 0 0 0 143 196Z"/></mask><mask id="b" width="24.4" height="75.4" x="154.9" y="116.9" maskUnits="userSpaceOnUse"><path fill="#fff" d="M159.9 121a16.6 16.6 0 0 0-5-4l12.5 6.7a16.4 16.4 0 0 1 4.9 4.1q7.1 8.7 7 31.2t-7.2 33.3l-12.4-6.7q7.2-10.9 7.3-33.3t-7.1-31.2Z"/></mask><mask id="c" width="23.9" height="15.9" x="139.3" y="174.3" maskUnits="userSpaceOnUse"><path fill="#fff" d="m151.7 189.5-12.4-6.7a6.1 6.1 0 0 0 3.8.6 7.8 7.8 0 0 0 4.6-2.4q2-2 3-6.7l12.5 6.7q-1.1 4.7-3.1 6.8a7.8 7.8 0 0 1-4.6 2.4 6 6 0 0 1-3.8-.7Z"/></mask><mask id="d" width="17.6" height="55.4" x="134.1" y="134.1" maskUnits="userSpaceOnUse"><path fill="#fff" d="M139.3 182.8a8 8 0 0 1-.7-.5l12.4 6.8a6 6 0 0 0 .7.4Z"/></mask><mask id="e" width="17.7" height="52.6" x="147" y="128.4" maskUnits="userSpaceOnUse"><path fill="#fff" d="m147 128.4 12.4 6.7a8.9 8.9 0 0 1 .7.5c1.3 1 2.4 3.2 3.3 6.6s1.3 9.6 1.3 18.9-.5 15.9-1.5 19.9l-12.4-6.7q1.4-6 1.5-20t-1.3-19c-.9-3.3-2-5.5-3.3-6.5a5 5 0 0 0-.7-.4Z"/></mask><mask id="f" width="12.6" height="6.9" x="146.8" y="128.3" maskUnits="userSpaceOnUse"/><mask id="h" width="25.3" height="61.8" x="134.1" y="127.7" maskUnits="userSpaceOnUse"><path fill="#fff" d="m147 128.4 1.3.7 1.3.7 9.7 5.3a5.9 5.9 0 0 0-3.7-.6 7.9 7.9 0 0 0-4.5 2.4q-2 2-3.1 6.7-1.5 6.1-1.5 20t1.2 19q1.3 5 3.3 6.5l-12.4-6.8q-2-1.4-3.3-6.5T134 157q0-14 1.5-20a14 14 0 0 1 3.2-6.7 7.8 7.8 0 0 1 4.5-2.4 6 6 0 0 1 3.7.6Z"/></mask><mask id="i" width="48" height="86" x="119.4" y="115" maskUnits="userSpaceOnUse"><path fill="#fff" d="m143.8 201-12.5-6.8a18.6 18.6 0 0 1-5.4-4.7q-6.6-8-6.5-30.7 0-22.3 7.2-33.2a23 23 0 0 1 16.6-10.4A18.6 18.6 0 0 1 155 117l12.4 6.8a18.6 18.6 0 0 0-11.8-1.7 23 23 0 0 0-16.6 10.4q-7.2 10.8-7.2 33.2 0 22.8 6.5 30.7a18.8 18.8 0 0 0 5.4 4.6Z"/></mask><mask id="j" width="17.6" height="17.5" x="42" y="43.9" maskUnits="userSpaceOnUse"><path fill="#fff" d="M47.2 48.3a4.9 4.9 0 0 0-2.3-4.4l7 3.9 3.2 1.7 1.5.8c.2.1.4.4.7.4a4.9 4.9 0 0 1 2.2 4.3 6.5 6.5 0 0 1-5.2 6.3L42 54.6a6.4 6.4 0 0 0 5.2-6.4Z"/></mask><mask id="l" width="14.8" height="13.3" x="44.8" y="43.9" maskUnits="userSpaceOnUse"><path fill="#fff" d="m44.9 44-.1-.1 12.4 6.7h.1Z"/></mask><mask id="m" width="15.2" height="7.3" x="39.2" y="54.1" maskUnits="userSpaceOnUse"><path fill="#fff" d="M39.2 54.1a4.5 4.5 0 0 0 2.8.5l12.4 6.7a4.4 4.4 0 0 1-2.8-.5Z"/></mask><mask id="n" width="15.2" height="7.3" x="42" y="43.3" maskUnits="userSpaceOnUse"><path fill="#fff" d="m44.8 43.9 12.4 6.7a4.4 4.4 0 0 0-2.8-.5L42 43.4a4.4 4.4 0 0 1 2.8.5Z"/></mask><mask id="o" width="17.6" height="17.5" x="36.8" y="43.4" maskUnits="userSpaceOnUse"><path fill="#fff" d="M51.6 60.9 39.2 54a4.9 4.9 0 0 1-2.4-4.4 6.5 6.5 0 0 1 5.2-6.3L54.4 50a6.4 6.4 0 0 0-5.2 6.4 4.8 4.8 0 0 0 2.4 4.4Z"/></mask><mask id="p" width="17.6" height="17.5" x="28.2" y="45.8" maskUnits="userSpaceOnUse"><path fill="#fff" d="M33.4 50.2a4.9 4.9 0 0 0-2.2-4.4l12.3 6.8a4.8 4.8 0 0 1 2.3 4.3 6.4 6.4 0 0 1-5.2 6.4l-12.4-6.8a6.4 6.4 0 0 0 5.2-6.3Z"/></mask><mask id="q" width="14.8" height="13.3" x="31" y="45.8" maskUnits="userSpaceOnUse"><path fill="#fff" d="m31.2 45.9-.2-.1 12.4 6.7.2.1-6.2-3.4-4-2.1-1.5-.9-.7-.3Z"/></mask><mask id="r" width="15.2" height="7.3" x="25.4" y="56" maskUnits="userSpaceOnUse"><path fill="#fff" d="M25.5 56a4.5 4.5 0 0 0 2.7.5l12.4 6.7a4.4 4.4 0 0 1-2.7-.4Z"/></mask><mask id="s" width="15.2" height="7.3" x="28.3" y="45.3" maskUnits="userSpaceOnUse"><path fill="#fff" d="m31 45.8 12.4 6.7a4.4 4.4 0 0 0-2.7-.4l-12.5-6.8a4.5 4.5 0 0 1 2.8.5Z"/></mask><mask id="t" width="17.6" height="17.5" x="23.1" y="45.3" maskUnits="userSpaceOnUse"><path fill="#fff" d="M37.9 62.8 25.5 56a4.9 4.9 0 0 1-2.4-4.4 6.4 6.4 0 0 1 5.1-6.3L40.8 52a6.4 6.4 0 0 0-5.2 6.4 4.8 4.8 0 0 0 2.4 4.4Z"/></mask><mask id="u" width="17.6" height="17.5" x="14.5" y="47.7" maskUnits="userSpaceOnUse"><path fill="#fff" d="M19.7 52.1a4.9 4.9 0 0 0-2.3-4.3l12.4 6.7a4.9 4.9 0 0 1 2.3 4.4 6.4 6.4 0 0 1-5.2 6.3l-12.4-6.8a6.4 6.4 0 0 0 5.2-6.3Z"/></mask><mask id="v" width="15.2" height="7.3" x="14.5" y="47.2" maskUnits="userSpaceOnUse"><path fill="#fff" d="m17.3 47.7 12.4 6.7a4.4 4.4 0 0 0-2.8-.4l-12.4-6.8a4.4 4.4 0 0 1 2.8.5Z"/></mask><mask id="w" width="14.8" height="13.3" x="17.3" y="47.7" maskUnits="userSpaceOnUse"><path fill="#fff" d="M17.4 47.8h-.1l12.4 6.7h.1Z"/></mask><mask id="x" width="15.2" height="7.3" x="11.7" y="58" maskUnits="userSpaceOnUse"><path fill="#fff" d="M11.7 58a4.5 4.5 0 0 0 2.8.5l12.4 6.7a4.4 4.4 0 0 1-2.8-.5Z"/></mask><mask id="y" width="17.6" height="17.5" x="9.3" y="47.2" maskUnits="userSpaceOnUse"><path fill="#fff" d="M24.1 64.7 11.7 58a4.9 4.9 0 0 1-2.4-4.4 6.4 6.4 0 0 1 5.2-6.4L27 54a6.5 6.5 0 0 0-5.2 6.3 4.9 4.9 0 0 0 2.4 4.4Z"/></mask></defs><path fill="#828282" d="m239 173.7-12.5-6.7v-13.3l12.4 6.7Z"/><path fill="#b4b4b4" d="m229.9 175-12.4-6.8 9-1.2 12.4 6.8Z"/><path fill="#828282" d="m229.8 191-12.4-6.8v-16l12.4 6.8Z"/><path fill="#b4b4b4" d="m216.2 192.8-12.4-6.7 13.6-2 12.4 6.8Z"/><path fill="#3556a9" d="m229.9 161.7-12.4-6.7 9.1-1.3 12.4 6.8Z"/><path fill="#263e7a" d="m216.2 192.8-12.4-6.7v-16l12.4 6.8Z"/><path fill="#828282" d="m229.9 161.7-12.4-6.7.1-50.2 12.4 6.8Z"/><path fill="#263e7a" d="m216.3 163.6-12.4-6.7v-27l12.4 6.7Z"/><path fill="#3556a9" d="m199.4 166-12.4-6.7 16.9-2.4 12.4 6.7Z"/><path fill="#999" d="m199.4 166-12.4-6.7 17-29.5 12.3 6.8Z"/><path fill="#dfdfdf" d="m216.3 163.6-16.9 2.4 17-29.4Z"/><path fill="#b4b4b4" d="m186.3 181.2-12.4-6.8 30-4.2 12.4 6.7Z"/><path fill="#3556a9" d="m218.2 113.2-12.4-6.8 11.8-1.6 12.4 6.7Z"/><path fill="#416ad1" d="m229.9 161.7 9-1.3v13.3l-9 1.3v16l-13.6 1.8V177l-30 4.2V168l31.9-54.8 11.8-1.6-.1 50.2Zm-13.6 1.9v-27L199.4 166Z"/><path fill="#2d498f" d="m186.3 167.9-12.4-6.8 31.9-54.7 12.4 6.8Z"/><path fill="#263e7a" d="m186.3 181.2-12.4-6.8v-13.3l12.4 6.8Z"/><g mask="url(#a)"><path fill="#9e9e9e" d="m143.8 201-12.5-6.8.6.3 12.4 6.7Z"/><path fill="#a3a3a3" d="m144.3 201.2-12.4-6.7a16.4 16.4 0 0 0 3.2 1.2l12.4 6.7a16.4 16.4 0 0 1-3.2-1.2Z"/><path fill="#a8a8a8" d="m147.5 202.4-12.4-6.8a20.2 20.2 0 0 0 8 .4 24.8 24.8 0 0 0 7.2-2l12.4 6.7a25.1 25.1 0 0 1-7.2 2 20.4 20.4 0 0 1-8-.3Z"/><path fill="#a3a3a3" d="m162.6 200.7-12.4-6.8a21.3 21.3 0 0 0 3.2-1.8l12.4 6.7a22.4 22.4 0 0 1-3.2 1.9Z"/><path fill="#9e9e9e" d="m165.8 198.8-12.4-6.7a23.5 23.5 0 0 0 2.2-1.8l12.4 6.8a23.3 23.3 0 0 1-2.2 1.7Z"/><path fill="#999" d="m168 197-12.4-6.7a21.8 21.8 0 0 0 2-1.9l12.3 6.8a26.8 26.8 0 0 1-1.9 1.9Z"/><path fill="#949494" d="m170 195.1-12.5-6.7a24.6 24.6 0 0 0 1.8-2.3l12.4 6.7a24.8 24.8 0 0 1-1.8 2.3Z"/><path fill="#8f8f8f" d="m171.7 192.8-12.4-6.7.4-.5 12.4 6.7Z"/></g><g mask="url(#b)"><path fill="#8f8f8f" d="m172.1 192.3-12.4-6.7 1.4-2.4 12.4 6.7c-.4.9-.9 1.7-1.4 2.4Z"/><path fill="#8a8a8a" d="m173.5 190-12.4-6.8a35.6 35.6 0 0 0 2.1-4.7l12.4 6.7a35.6 35.6 0 0 1-2 4.7Z"/><path fill="#858585" d="m175.6 185.2-12.4-6.7q3.7-10.1 3.8-26.2 0-22.5-7.1-31.2a16.6 16.6 0 0 0-5-4.2l12.5 6.8a16.5 16.5 0 0 1 4.9 4.1q7.1 8.7 7 31.2 0 16.1-3.7 26.2Z"/></g><g mask="url(#c)"><path fill="#2f4c94" d="m151.7 189.5-12.4-6.7.2.1 12.4 6.7a1.5 1.5 0 0 1-.2 0Z"/><path fill="#304e99" d="m152 189.6-12.5-6.7a6.2 6.2 0 0 0 1.1.4l12.4 6.8a5.5 5.5 0 0 1-1-.5Z"/><path fill="#32519e" d="m153 190-12.4-6.7a6.5 6.5 0 0 0 2.5.1 7.7 7.7 0 0 0 2.1-.6l12.4 6.7a7.3 7.3 0 0 1-2 .7 6.4 6.4 0 0 1-2.6-.1Z"/><path fill="#304e99" d="m157.6 189.5-12.4-6.7a7.8 7.8 0 0 0 1.1-.7l12.4 6.8a7.3 7.3 0 0 1-1 .6Z"/><path fill="#2f4c94" d="m158.8 188.9-12.5-6.8a8.3 8.3 0 0 0 1-.7l12.3 6.8a8.3 8.3 0 0 1-.8.7Z"/><path fill="#2d498f" d="m159.6 188.2-12.4-6.8a5.7 5.7 0 0 0 .5-.4 3 3 0 0 0 .2-.2l12.4 6.7-.2.3Z"/><path fill="#2c478b" d="m160.3 187.5-12.4-6.7.6-.7 12.4 6.7a7.9 7.9 0 0 1-.6.7Z"/><path fill="#2a4486" d="m160.9 186.8-12.4-6.7a10 10 0 0 0 .6-1l12.4 6.7a10.2 10.2 0 0 1-.6 1Z"/><path fill="#294281" d="m161.5 185.8-12.4-6.8a15.1 15.1 0 0 0 .9-2l12.4 6.8a15.3 15.3 0 0 1-.9 2Z"/><path fill="#273f7c" d="m162.3 183.8-12.4-6.7a23.5 23.5 0 0 0 .9-2.8l12.4 6.7a25.3 25.3 0 0 1-.8 2.8Z"/></g><g mask="url(#d)"><path fill="#858585" d="m151.7 189.5-12.4-6.7a6.8 6.8 0 0 1-.7-.5c-1.3-1-2.4-3.1-3.3-6.5s-1.2-9.6-1.2-18.9.4-15.9 1.4-20a24.7 24.7 0 0 1 .9-2.8l12.4 6.8a23.5 23.5 0 0 0-.9 2.8q-1.4 6-1.5 20t1.3 18.9q1.3 5 3.3 6.5a5.8 5.8 0 0 0 .7.4Z"/></g><g mask="url(#e)"><path fill="#273f7c" d="m163.2 181-12.4-6.7q1.4-6 1.5-20t-1.3-19c-.9-3.3-2-5.5-3.3-6.4a5 5 0 0 0-.7-.5l12.4 6.7a5.8 5.8 0 0 1 .7.5q2 1.5 3.3 6.5t1.3 19q0 13.9-1.5 20Z"/></g><g mask="url(#f)"><use xlink:href="#g"/></g><g mask="url(#h)"><path fill="#858585" d="m151.7 189.5-12.4-6.7a5.4 5.4 0 0 1-.7-.5q-2-1.4-3.3-6.4t-1.2-19q0-14 1.5-20a22.7 22.7 0 0 1 .8-2.8l12.4 6.8a23.9 23.9 0 0 0-.8 2.8q-1.5 6-1.5 20t1.2 18.9q1.3 5 3.3 6.5a7.2 7.2 0 0 0 .7.4Z"/><path fill="#8a8a8a" d="m148.8 140.8-12.4-6.7a14.5 14.5 0 0 1 .8-2l12.4 6.8a14.3 14.3 0 0 0-.8 2"/><path fill="#8f8f8f" d="m149.6 139-12.4-6.8a10 10 0 0 1 .7-1l12.4 6.7a8.7 8.7 0 0 0-.7 1Z"/><path fill="#949494" d="m150.3 137.9-12.4-6.8a8.1 8.1 0 0 1 .5-.6l12.4 6.7a5.6 5.6 0 0 0-.5.7Z"/><path fill="#999" d="m150.8 137.2-12.4-6.8a3.3 3.3 0 0 1 .3-.2l.4-.4 12.4 6.7-.4.4Z"/><path fill="#9e9e9e" d="m151.5 136.5-12.4-6.7a7.2 7.2 0 0 1 1-.7l12.3 6.7a8.2 8.2 0 0 0-.9.7Z"/><path fill="#a3a3a3" d="M152.4 135.8 140 129a8.2 8.2 0 0 1 1.1-.6l12.4 6.8a7.8 7.8 0 0 0-1.1.6Z"/><path fill="#a8a8a8" d="m153.5 135.2-12.4-6.8a7.8 7.8 0 0 1 2.1-.6 6.3 6.3 0 0 1 2.5.1l12.4 6.8a6.3 6.3 0 0 0-2.4-.2 7.4 7.4 0 0 0-2.2.7Z"/><path fill="#a3a3a3" d="m158 134.7-12.3-6.8a6.1 6.1 0 0 1 1 .4l12.5 6.8a5 5 0 0 0-1.1-.4Z"/><use xlink:href="#g"/></g><path fill="#416ad1" d="M172.3 127.8q7.1 8.7 7 31.2t-7.2 33.3a23 23 0 0 1-16.6 10.4q-10.7 1.5-17.2-6.4t-6.5-30.7q0-22.4 7.3-33.2a23 23 0 0 1 16.5-10.4q10.7-1.5 16.7 5.9Zm-9.1 53.2q1.4-6 1.5-20t-1.3-18.9q-1.3-5-3.3-6.5a5.9 5.9 0 0 0-4.5-1.1 7.8 7.8 0 0 0-4.5 2.4q-2 2-3.2 6.7-1.4 6-1.4 20t1.2 19q1.3 5 3.3 6.4a6 6 0 0 0 4.5 1.1 7.8 7.8 0 0 0 4.6-2.4 14 14 0 0 0 3-6.7"/><path fill="#dfdfdf" d="M160.1 135.7q2 1.4 3.3 6.5t1.3 18.9q0 14-1.5 20-1.1 4.7-3.1 6.7a7.8 7.8 0 0 1-4.6 2.4 6 6 0 0 1-4.5-1q-2-1.5-3.3-6.6t-1.2-19q0-13.8 1.4-20 1.2-4.6 3.2-6.6a7.8 7.8 0 0 1 4.5-2.4 5.9 5.9 0 0 1 4.5 1.1Z"/><g mask="url(#i)"><path fill="#273f7c" d="m143.8 201-12.5-6.8a18.5 18.5 0 0 1-5.4-4.7q-6.6-8-6.5-30.7 0-16 3.7-26l12.4 6.7q-3.7 10-3.7 26 0 22.8 6.5 30.8a19 19 0 0 0 5.4 4.6Z"/><path fill="#294281" d="m135.5 139.5-12.4-6.8a35.2 35.2 0 0 1 2.1-4.7l12.4 6.8a37 37 0 0 0-2 4.7Z"/><path fill="#2a4486" d="m137.6 134.8-12.4-6.8 1.4-2.4.4-.5 12.4 6.7-.4.6c-.5.7-1 1.5-1.4 2.4Z"/><path fill="#2c478b" d="m139.4 131.8-12.4-6.7a28.3 28.3 0 0 1 1.8-2.3l12.4 6.8a27.5 27.5 0 0 0-1.8 2.2Z"/><path fill="#2d498f" d="m141.2 129.6-12.4-6.8a23.2 23.2 0 0 1 2-2l12.3 6.8a24.9 24.9 0 0 0-1.9 2Z"/><path fill="#2f4c94" d="m143.1 127.6-12.4-6.7a22.2 22.2 0 0 1 2.2-1.8l12.4 6.8a23.4 23.4 0 0 0-2.2 1.7Z"/><path fill="#304e99" d="m145.3 125.8-12.4-6.7a22.4 22.4 0 0 1 3.2-1.8l12.4 6.7a22.3 22.3 0 0 0-3.2 1.8Z"/><path fill="#32519e" d="m148.5 124-12.4-6.8a24.7 24.7 0 0 1 7.2-2 20.7 20.7 0 0 1 8.1.3l12.4 6.7a21 21 0 0 0-8.1-.3 24.5 24.5 0 0 0-7.2 2.1Z"/><path fill="#304e99" d="m163.8 122.3-12.4-6.8a16.8 16.8 0 0 1 3 1.1l12.4 6.8a15.4 15.4 0 0 0-3-1.1Z"/><path fill="#2f4c94" d="m166.8 123.4-12.4-6.8.6.3 12.4 6.8Z"/></g><path fill="#828282" d="m125 189.8-12.3-6.8v-13.3l12.4 6.7Zm-9 17.2-12.5-6.8v-16L116 191Z"/><path fill="#b4b4b4" d="m116 191-12.5-6.7 9.1-1.3 12.4 6.8Zm-13.7 17.9L90 202l13.6-1.9L116 207Z"/><path fill="#3556a9" d="m116 177.7-12.4-6.7 9.1-1.3 12.4 6.8Z"/><path fill="#263e7a" d="M102.3 208.9 90 202v-16l12.4 6.8Z"/><path fill="#828282" d="m116 177.7-12.4-6.7v-50.2l12.5 6.8Z"/><path fill="#263e7a" d="M102.4 179.6 90 173v-27l12.4 6.7Z"/><path fill="#3556a9" d="m85.5 182-12.4-6.8L90 173l12.4 6.7Z"/><path fill="#dfdfdf" d="M102.4 179.6 85.5 182l17-29.4Z"/><path fill="#999" d="m85.5 182-12.4-6.8 17-29.3 12.3 6.7Z"/><path fill="#b4b4b4" d="M72.4 197.2 60 190.4l30-4.2 12.4 6.7Z"/><path fill="#3556a9" d="m104.3 129.2-12.4-6.8 11.8-1.6 12.4 6.7Z"/><path fill="#263e7a" d="M72.4 197.2 60 190.3V177l12.4 6.8Z"/><path fill="#416ad1" d="m116 177.7 9.1-1.3v13.3L116 191v16l-13.6 1.9v-16l-30 4.3v-13.3l31.9-54.7 11.8-1.7-.1 50.2Zm-13.6 2v-27L85.5 182Z"/><path fill="#2d498f" d="M72.4 183.9 60 177l31.9-54.7 12.4 6.8Z"/><g mask="url(#j)"><path fill="#454545" d="M54.4 61.3 42 54.6a5.3 5.3 0 0 0 1.5-.5L56 61a5.3 5.3 0 0 1-1.5.4Z"/><path fill="#434343" d="M55.9 60.9 43.5 54a6.4 6.4 0 0 0 .9-.5l12.4 6.8a6 6 0 0 1-1 .5Z"/><path fill="#404040" d="m56.7 60.4-12.4-6.8a7.7 7.7 0 0 0 .7-.5L57.4 60a7.6 7.6 0 0 1-.7.5Z"/><path fill="#3e3e3e" d="M57.4 59.9 45 53l.5-.5 12.4 6.8a6.8 6.8 0 0 1-.5.5Z"/><path fill="#3c3c3c" d="m57.9 59.4-12.4-6.8a6.8 6.8 0 0 0 .5-.6l12.4 6.8a6.8 6.8 0 0 1-.5.6Z"/><path fill="#3a3a3a" d="M58.4 58.8 46 52a7 7 0 0 0 .4-.7l12.4 6.8a8 8 0 0 1-.4.7Z"/><path fill="#383838" d="m58.8 58-12.4-6.7a7 7 0 0 0 .4-.8l12.4 6.7a6.8 6.8 0 0 1-.4.9Z"/><use xlink:href="#k"/></g><g mask="url(#l)"><use xlink:href="#k"/></g><g mask="url(#m)"><path fill="#404040" d="M51.6 60.9 39.2 54h.1l12.5 7Z"/><path fill="#434343" d="m51.8 61-12.4-6.8a4.8 4.8 0 0 0 .8.3l12.4 6.7a3.8 3.8 0 0 1-.8-.3Z"/><path fill="#454545" d="m52.6 61.2-12.4-6.7a4.7 4.7 0 0 0 1.8 0l12.4 6.8a4.5 4.5 0 0 1-1.8 0Z"/></g><g mask="url(#n)"><path fill="#a8a8a8" d="M54.4 50.1 42 43.4a4.5 4.5 0 0 1 1.8 0l12.4 6.8a4.4 4.4 0 0 0-1.8 0Z"/><path fill="#a3a3a3" d="m56.2 50.2-12.4-6.7a3.8 3.8 0 0 1 .8.3L57 50.5a4.5 4.5 0 0 0-.8-.3Z"/><path fill="#9e9e9e" d="m57 50.5-12.4-6.7h.2l12.4 6.8a.8.8 0 0 0-.2 0Z"/></g><g mask="url(#o)"><path fill="#858585" d="M51.6 60.9 39.2 54a4.9 4.9 0 0 1-2.4-4.4 6.8 6.8 0 0 1 .4-2.2l12.4 6.7a6.4 6.4 0 0 0-.4 2.3 4.8 4.8 0 0 0 2.4 4.4Z"/><path fill="#8a8a8a" d="m49.6 54.3-12.4-6.8a7 7 0 0 1 .4-.9L50 53.4a6.8 6.8 0 0 0-.4.9Z"/><path fill="#8f8f8f" d="m50 53.4-12.4-6.8a7 7 0 0 1 .4-.6l12.4 6.7a8 8 0 0 0-.4.7Z"/><path fill="#949494" d="M50.4 52.7 38 46a5.5 5.5 0 0 1 .5-.6l12.4 6.7-.5.6Z"/><path fill="#999" d="m50.9 52.1-12.4-6.8a5.3 5.3 0 0 1 .5-.5l12.4 6.8a5.3 5.3 0 0 0-.5.5Z"/><path fill="#9e9e9e" d="M51.4 51.6 39 44.8a7.1 7.1 0 0 1 .6-.5L52 51.1a6 6 0 0 0-.6.5Z"/><path fill="#a3a3a3" d="m52 51-12.4-6.7a5.4 5.4 0 0 1 .9-.5l12.4 6.8a6 6 0 0 0-.9.5Z"/><path fill="#a8a8a8" d="m52.9 50.6-12.4-6.8a5 5 0 0 1 1.5-.4L54.4 50a5.3 5.3 0 0 0-1.5.5Z"/></g><g mask="url(#p)"><path fill="#454545" d="m40.6 63.3-12.4-6.8a5.3 5.3 0 0 0 1.6-.5L42 62.8a5.7 5.7 0 0 1-1.5.5Z"/><path fill="#434343" d="M42.1 62.8 29.8 56a6 6 0 0 0 .9-.4L43 62.3a6 6 0 0 1-.9.5Z"/><path fill="#404040" d="m43 62.3-12.4-6.7a7.7 7.7 0 0 0 .6-.5l12.4 6.7a6 6 0 0 1-.6.5Z"/><path fill="#3e3e3e" d="m43.6 61.8-12.4-6.7.6-.6 12.4 6.8a5.3 5.3 0 0 1-.6.5Z"/><path fill="#3c3c3c" d="m44.1 61.3-12.4-6.8c.2-.2.4-.3.5-.6l12.4 6.8-.5.6Z"/><path fill="#3a3a3a" d="m44.6 60.7-12.4-6.8a8 8 0 0 0 .4-.7L45 60a8 8 0 0 1-.4.7Z"/><path fill="#383838" d="m45 60-12.4-6.8a6.8 6.8 0 0 0 .4-.8L45.4 59a6.8 6.8 0 0 1-.4.9Z"/><path fill="#363636" d="M45.4 59.1 33 52.4a6.3 6.3 0 0 0 .4-2.2 4.9 4.9 0 0 0-2.4-4.4l12.4 6.7a4.8 4.8 0 0 1 2.4 4.4 6.4 6.4 0 0 1-.4 2.2Z"/></g><g mask="url(#q)"><path fill="#363636" d="M45.4 59.1 33 52.4a6.3 6.3 0 0 0 .4-2.2 4.9 4.9 0 0 0-2.4-4.4l12.4 6.7a4.8 4.8 0 0 1 2.4 4.4 6.3 6.3 0 0 1-.4 2.2Z"/></g><g mask="url(#r)"><path fill="#404040" d="M37.9 62.8 25.5 56a.8.8 0 0 0 .1 0L38 62.9Z"/><path fill="#434343" d="M38 62.9 25.6 56a5.3 5.3 0 0 0 .8.3l12.4 6.8a4.8 4.8 0 0 1-.8-.3Z"/><path fill="#454545" d="m38.8 63.2-12.4-6.8a4.6 4.6 0 0 0 1.8.1l12.4 6.8a4.6 4.6 0 0 1-1.8-.1Z"/></g><g mask="url(#s)"><path fill="#a8a8a8" d="m40.7 52-12.5-6.7a4.7 4.7 0 0 1 1.9.1l12.3 6.8a4.6 4.6 0 0 0-1.7-.2Z"/><path fill="#a3a3a3" d="M42.5 52.1 30 45.4a4.7 4.7 0 0 1 .8.3l12.4 6.7a3.8 3.8 0 0 0-.8-.3Z"/><path fill="#9e9e9e" d="m43.3 52.5-12.4-6.8h.1l12.4 6.8Z"/></g><g mask="url(#t)"><path fill="#858585" d="M37.9 62.8 25.5 56a4.9 4.9 0 0 1-2.4-4.4 6.6 6.6 0 0 1 .3-2.2L36 56.2a6.3 6.3 0 0 0-.4 2.1 4.8 4.8 0 0 0 2.4 4.5Z"/><path fill="#8a8a8a" d="m35.9 56.2-12.4-6.8a6.8 6.8 0 0 1 .4-.8l12.4 6.7a6.8 6.8 0 0 0-.4.9Z"/><path fill="#8f8f8f" d="m36.3 55.3-12.4-6.7a6 6 0 0 1 .4-.7l12.4 6.7a8 8 0 0 0-.5.7Z"/><path fill="#949494" d="M36.7 54.6 24.3 48l.4-.6L37.1 54l-.4.6Z"/><path fill="#999" d="m37.1 54-12.4-6.8a5.4 5.4 0 0 1 .6-.5l12.4 6.8a6.8 6.8 0 0 0-.6.5Z"/><path fill="#9e9e9e" d="m37.7 53.5-12.4-6.7a6 6 0 0 1 .6-.5L38.3 53a6 6 0 0 0-.6.5Z"/><path fill="#a3a3a3" d="m38.3 53-12.4-6.7a5.4 5.4 0 0 1 .8-.5l12.4 6.7a7 7 0 0 0-.8.5Z"/><path fill="#a8a8a8" d="m39.1 52.5-12.4-6.7a5.4 5.4 0 0 1 1.6-.5L40.7 52a5.3 5.3 0 0 0-1.6.5Z"/></g><g mask="url(#u)"><path fill="#454545" d="m27 65.2-12.5-6.8A5.3 5.3 0 0 0 16 58l12.4 6.8a5.4 5.4 0 0 1-1.5.4Z"/><path fill="#434343" d="M28.4 64.7 16 58a5.4 5.4 0 0 0 .9-.5l12.4 6.8a5.5 5.5 0 0 1-.9.4Z"/><path fill="#404040" d="m29.3 64.2-12.4-6.7a7.7 7.7 0 0 0 .6-.5L30 63.8a7 7 0 0 1-.6.4Z"/><path fill="#3e3e3e" d="M29.9 63.8 17.5 57a6.8 6.8 0 0 0 .6-.5l12.4 6.7a5.4 5.4 0 0 1-.6.5Z"/><path fill="#3c3c3c" d="M30.4 63.2 18 56.5a6.9 6.9 0 0 0 .5-.6l12.4 6.7a5.5 5.5 0 0 1-.5.6Z"/><path fill="#3a3a3a" d="M30.9 62.6 18.5 56l.5-.7L31.4 62a6.1 6.1 0 0 1-.5.7Z"/><path fill="#383838" d="M31.3 62 19 55.1a7 7 0 0 0 .4-.9L31.8 61a8.6 8.6 0 0 1-.4.8Z"/><path fill="#363636" d="m31.7 61-12.4-6.7a6.3 6.3 0 0 0 .4-2.2 4.8 4.8 0 0 0-2.4-4.4l12.4 6.8a4.9 4.9 0 0 1 2.4 4.4 6.5 6.5 0 0 1-.4 2.2Z"/></g><g mask="url(#v)"><path fill="#a8a8a8" d="m27 54-12.5-6.8a4.6 4.6 0 0 1 1.8.1l12.4 6.8A4.7 4.7 0 0 0 27 54Z"/><path fill="#a3a3a3" d="m28.7 54-12.4-6.7a4.5 4.5 0 0 1 .8.3l12.4 6.8a4 4 0 0 0-.8-.3Z"/><path fill="#9e9e9e" d="m29.5 54.4-12.4-6.8a.8.8 0 0 1 .2.1l12.4 6.8Z"/></g><g mask="url(#w)"><path fill="#363636" d="m31.7 61-12.4-6.7a6.6 6.6 0 0 0 .4-2.2 4.9 4.9 0 0 0-2.4-4.4l12.4 6.8a4.9 4.9 0 0 1 2.4 4.4 6.3 6.3 0 0 1-.4 2.2Z"/></g><g mask="url(#x)"><path fill="#404040" d="M24.1 64.7 11.7 58h.2l12.4 6.8Z"/><path fill="#434343" d="M24.3 64.8 11.9 58a4.5 4.5 0 0 0 .8.3L25.1 65a4.5 4.5 0 0 1-.8-.3Z"/><path fill="#454545" d="m25.1 65.1-12.4-6.7a4.7 4.7 0 0 0 1.8 0l12.4 6.8a4.6 4.6 0 0 1-1.8-.1"/></g><path fill="#b4b4b4" d="M12.8 76.2.4 69.4l286.2-40.2 12.4 6.7Z"/><g mask="url(#y)"><path fill="#858585" d="M24.1 64.7 11.7 58a4.9 4.9 0 0 1-2.4-4.4 6.4 6.4 0 0 1 .4-2.2l12.4 6.8a6.5 6.5 0 0 0-.4 2.1 4.9 4.9 0 0 0 2.4 4.4Z"/><path fill="#8a8a8a" d="M22.1 58.1 9.7 51.4a6.8 6.8 0 0 1 .4-1l12.4 6.8a7.7 7.7 0 0 0-.4 1Z"/><path fill="#8f8f8f" d="m22.5 57.2-12.4-6.7a8 8 0 0 1 .4-.7L23 56.6a5.4 5.4 0 0 0-.4.6Z"/><path fill="#949494" d="m23 56.5-12.5-6.7a6.7 6.7 0 0 1 .5-.6L23.4 56a4.5 4.5 0 0 0-.5.5Z"/><path fill="#999" d="M23.4 56 11 49.2l.5-.5L24 55.4a5.4 5.4 0 0 0-.5.6Z"/><path fill="#9e9e9e" d="m24 55.4-12.5-6.7a7.6 7.6 0 0 1 .7-.5l12.3 6.7a6.2 6.2 0 0 0-.6.5Z"/><path fill="#a3a3a3" d="m24.5 55-12.4-6.8a6 6 0 0 1 .9-.5l12.4 6.7a5.5 5.5 0 0 0-.9.5Z"/><path fill="#a8a8a8" d="M25.4 54.4 13 47.7a5.7 5.7 0 0 1 1.5-.5L27 54a5.4 5.4 0 0 0-1.5.4Z"/></g><path fill="#5b5b5b" d="M12.9 47 299 6.7V36L12.8 76.2Zm27.7 16.3a6.4 6.4 0 0 0 5.2-6.4c0-3-2.3-5.2-5.1-4.8a6.5 6.5 0 0 0-5.2 6.3c0 3 2.3 5.3 5.1 4.9Zm13.8-2a6.5 6.5 0 0 0 5.1-6.3c0-3.1-2.3-5.3-5.1-4.9a6.4 6.4 0 0 0-5.2 6.3c0 3.1 2.3 5.3 5.2 5Zm-27.5 3.9a6.4 6.4 0 0 0 5.2-6.3c0-3.1-2.3-5.3-5.2-5a6.5 6.5 0 0 0-5.2 6.4c0 3.1 2.3 5.3 5.2 4.9Z"/><path fill="#dfdfdf" d="M54.4 50.1c2.9-.4 5.1 1.8 5.1 4.9a6.5 6.5 0 0 1-5.2 6.3c-2.8.4-5.2-1.7-5.1-4.8a6.4 6.4 0 0 1 5.1-6.4ZM40.7 52c2.8-.4 5.1 1.8 5.1 5a6.5 6.5 0 0 1-5.2 6.3c-2.8.4-5.1-1.8-5.1-5a6.4 6.4 0 0 1 5.2-6.3ZM12.8 76.2 299 35.9l-.4 223.9L12.4 300Zm112.3 113.5v-13.3l-9.1 1.3v-50.2l-11.7 1.7-32 54.7V197l30-4.2v16l13.7-2V191l9-1.2m114-16v-13.4l-9.1 1.3v-50.2l-11.8 1.7-31.8 54.7v13.3l30-4.3v16l13.6-2V175l9-1.2m-66.8 18.5q7.2-10.8 7.3-33.3t-7.1-31.2q-6-7.3-16.7-5.8a23 23 0 0 0-16.6 10.4q-7.2 10.8-7.2 33.2 0 22.7 6.5 30.7t17.2 6.4a23 23 0 0 0 16.6-10.4"/><path fill="#828282" d="M12.4 300 0 293.2.4 69.4l12.4 6.7Z"/><path fill="#dfdfdf" d="M27 54c2.8-.4 5.1 1.8 5.1 4.9a6.4 6.4 0 0 1-5.2 6.3c-2.9.4-5.2-1.8-5.2-4.9A6.5 6.5 0 0 1 27 54Z"/><path fill="#353535" d="M12.8 76.2.4 69.4V40.2L13 47Z"/><path fill="#494949" d="M12.9 47 .5 40.2 286.6 0l12.5 6.8Z"/></svg>