<svg xmlns="http://www.w3.org/2000/svg" viewBox="0 0 260 260"><rect width="260" height="260" rx="50.87" fill="#fff"/><path d="M218,46.05l27.7-30.48a49.06,49.06,0,0,0-4.22-3.93L208.43,48.28l3.68,4.25C214.16,50.29,216.1,48.18,218,46.05Z" fill="#003dab"/><path d="M82.62,174.1A8.42,8.42,0,0,0,91,169,24.33,24.33,0,0,0,93,161.74a21.26,21.26,0,0,0-2-12.9c-1.67-3.1-4.18-5.15-7.9-5.18s-6.22,2-8,5c-1.89,3.25-2.31,6.82-2.26,10.49a20,20,0,0,0,1.83,9.67C76.27,172.09,78.85,174,82.62,174.1Z" fill="#003dab"/><path d="M194.28,35.21c3-3.32,6.06-6.62,9.07-9.94q10.44-11.49,20.89-23A51.59,51.59,0,0,0,218.17.82L190,32Z" fill="#003dab"/><path d="M137.85,156.32a4.42,4.42,0,0,0,3.37-3.75c1.05-5-1.6-8.07-6.79-7.95-2.26,0-3,.54-3,2.77-.13,3.12,0,6.25,0,9.93C133.67,157,135.79,156.79,137.85,156.32Z" fill="#003dab"/><path d="M227.65,64.15c-1.45,1.6-3.75,3.06-4.06,4.86s1.43,3.84,2.31,5.77a105.67,105.67,0,0,1-6.06,99.78,6.81,6.81,0,0,1-.78,1c14.78-32.89,13.25-64.9-4.92-96.44-1.71,1.87-3.15,3.44-4.58,5q-16.89,18.69-33.76,37.41a3.79,3.79,0,0,1-3.18,1.39c-7.38-.06-14.77,0-22.15,0-.6,0-1.19,0-2.21-.1l53.59-59-4.27-3.94a7.75,7.75,0,0,1-.81,1.24q-27.14,30.08-54.28,60.16a4.54,4.54,0,0,1-3.8,1.67c-7.2-.08-14.4,0-21.6,0H114.6l68.19-75.06-4.62-2.75c-3.35,3.69-6.65,7.32-9.94,11q-29.64,32.82-59.29,65.6a3.63,3.63,0,0,1-2.27,1.2c-8,.08-16,0-24,0a10.19,10.19,0,0,1-1-.17L159.58,37c-33.87-9.12-64.6-3.81-91.9,18C49.71,69.27,38.32,88,33.41,110.49s-2.16,44.06,7.72,64.82l-.52.19c-2.15-4.11-4.48-8.14-6.43-12.34A102.08,102.08,0,0,1,24.77,126a82.65,82.65,0,0,1-.51-9.54C25.82,89,35.33,64.75,54.89,44.94A103,103,0,0,1,115,14.55a95.11,95.11,0,0,1,15.76-1.36,108,108,0,0,1,40.5,8.6,1.9,1.9,0,0,0,2.64-.52Q183.51,10.61,193.19,0H50.87A50.88,50.88,0,0,0,0,50.87V209.13A50.88,50.88,0,0,0,50.87,260H209.13A50.88,50.88,0,0,0,260,209.13V50.87a50.57,50.57,0,0,0-3.54-18.63Zm-72,74.95h22.14v4.63c-.42.06-.78.13-1.13.15-3.21.17-3.77,1-2.3,3.86,1.9,3.78,4,7.45,6.36,11.7,1.72-4.05,3.39-7.59,4.72-11.25,1.06-2.92.44-3.65-2.67-4.2l-1.2-.21v-4.67h17v4.74c-3.37,0-5,2.25-6.29,5-3.23,7-6.45,13.94-9.85,20.81a28.76,28.76,0,0,1-4.23,6.21c-3.63,4.12-10.05,5.28-15.4,2.83-3.54-1.63-5.33-4.68-4.69-7.91a5.56,5.56,0,0,1,7.79-3.83,4.42,4.42,0,0,1,2.34,4.27c0,2.3,1.25,3,3.41,2.23,2.62-1,3.46-3.3,2-5.67l-12.06-20.06c-2-3.26-2.22-3.43-6-4Zm-40.11,35.66c0-.37.72-.89,1.17-1,3.32-.54,4-1.3,4.06-4.71,0-6.4,0-12.8,0-19.19,0-5-.21-5.24-5.15-6.17V139c4.57,0,9,0,13.53,0a134.35,134.35,0,0,1,13.62.47c8,.95,12,7.74,9.5,15.4-1.3,4-4.32,6.07-8.15,7a53.92,53.92,0,0,1-7.84.9c-1.58.13-3.17,0-4.94,0,0,2.75-.1,5.2,0,7.65.12,2.17,1.06,3.2,3.23,3.26,1.8.06,2.19.81,2,2.36-.08.84,0,1.7,0,2.71H115.51A37.22,37.22,0,0,1,115.56,174.76Zm-7-30.66c6.9,7.19,7.92,18.9,2.64,26.9-4.75,7.2-16.3,10.23-21.2,8.45,11.17-2.08,16.84-9.48,17.56-18a21.49,21.49,0,0,0-4.06-15.14,20,20,0,0,0-13.57-8C93.51,136.09,104.09,139.48,108.52,144.1ZM83,137.75c13.15,0,21.44,9.18,21.61,21.56C104.52,171.87,95.66,180,82.9,180c-13,0-21.71-8.05-21.67-20.67C61.27,145.74,70.44,137.71,83,137.75ZM155.55,223c-1.67,11-7,19.29-17.94,23.13-1.61.57-3.28.93-4.93,1.38h-5.54c-1.65-.45-3.33-.8-4.94-1.36-10.73-3.72-16.09-11.76-17.91-22.55a33.79,33.79,0,0,1-.34-5.93c6.87,8,15.48,12.34,26,12.33s19-4.25,26.08-12.3C155.84,219.49,155.82,221.28,155.55,223Zm13.75-6a41.51,41.51,0,0,1-11.52-7.88l-1.95-1.83c-6.74,8.24-15.38,12.59-26,12.58s-19.13-4.35-25.87-12.52c-1.62,1.48-3.14,3-4.78,4.35-5.59,4.63-11.81,7.77-19.26,7.75-9.81,0-17.08-4.76-22.59-12.53a32.13,32.13,0,0,1-5.47-15.29c-.06-.52,0-1.06,0-2.17,7,8.51,15.62,12.88,26.17,12.85s19.13-4.35,25.89-12.7c6.71,8.31,15.35,12.7,25.93,12.7s19.15-4.3,25.94-12.7c6.68,8.26,15.3,12.68,25.86,12.7s19.14-4.23,26-12.67C208.64,207.41,191,226.58,169.3,217Z" fill="#003dab"/></svg>