<svg xmlns="http://www.w3.org/2000/svg" width="204" height="167.15" viewBox="0 0 204 167.15"><path fill="#fff" d="M12.32 133.67a7.72 7.72 0 0 0-.88-3.79 5.35 5.35 0 0 0-2.22-2.27 6.46 6.46 0 0 0-3.06-.72 6.46 6.46 0 0 0-3.06.72 5.45 5.45 0 0 0-2.24 2.27 8.76 8.76 0 0 0 0 7.57 5.5 5.5 0 0 0 2.24 2.29 6.57 6.57 0 0 0 3.06.7 6.57 6.57 0 0 0 3.06-.7 5.4 5.4 0 0 0 2.22-2.29 7.65 7.65 0 0 0 .88-3.78ZM8.79 137a3.44 3.44 0 0 1-2.63 1.13A3.5 3.5 0 0 1 3.51 137a5.93 5.93 0 0 1 0-6.74 3.47 3.47 0 0 1 2.65-1.14 3.42 3.42 0 0 1 2.63 1.14 5.89 5.89 0 0 1 0 6.74ZM19 129.09h.72c1.81 0 2.71-1 2.71-2.94H21a1.35 1.35 0 0 1-1.4.89h-.7a4.28 4.28 0 0 0-3.62 1.71c-.85 1.13-1.27 3-1.27 5.68a6.89 6.89 0 0 0 1.29 4.39 4.18 4.18 0 0 0 3.45 1.62 4.6 4.6 0 0 0 3.49-1.38 4.92 4.92 0 0 0 1.33-3.54 5.16 5.16 0 0 0-1.2-3.54 4.07 4.07 0 0 0-3.26-1.38 3.74 3.74 0 0 0-2.67 1c.1-1.67.94-2.51 2.56-2.51Zm-1.91 4.37a2.17 2.17 0 0 1 3.44 0 3.32 3.32 0 0 1 .63 2.06 3.43 3.43 0 0 1-.63 2.09 2.2 2.2 0 0 1-3.44 0 3.43 3.43 0 0 1-.63-2.09 3.32 3.32 0 0 1 .61-2.06Zm11.4-6.57h-2.63l.57 4.71h1.48l.58-4.71zM39.68 138l-1.9-1a2.52 2.52 0 0 1-2.3 1.46 2 2 0 0 1-1.44-.55 2.54 2.54 0 0 1-.72-1.44h4v-1.87h-4a2.48 2.48 0 0 1 .72-1.44 2 2 0 0 1 1.44-.55 2.5 2.5 0 0 1 2.3 1.46l1.9-1A4.86 4.86 0 0 0 32 132a5.58 5.58 0 0 0 0 7 4.49 4.49 0 0 0 3.53 1.4 4.5 4.5 0 0 0 4.15-2.4Zm9.98-7.25h-6.74l-1.19 7.54h-.79l.3 4.16h2v-2.16h4.81v2.16h2l.28-4.16h-.69Zm-2.32 7.54H44l.84-5.53h2.52Zm5.27-7.54v9.54h2.31v-4.07h3.14v4.07h2.31v-9.54h-2.31v3.47h-3.14v-3.47h-2.31zm13.78 3.68a4.64 4.64 0 0 0-2.91.85 2.71 2.71 0 0 0-1.1 2.27 2.79 2.79 0 0 0 .8 2.14 2.88 2.88 0 0 0 2.05.75 3.51 3.51 0 0 0 2.89-1.36l.25 1.21h1.9v-5.69q0-4-4-4a3.87 3.87 0 0 0-2.39.74 3 3 0 0 0-1.19 1.91l2 .46a1.54 1.54 0 0 1 1.62-1.1c1.1 0 1.65.47 1.65 1.4v.42Zm1.57 2a1.76 1.76 0 0 1-.68 1.42 2.25 2.25 0 0 1-1.51.55 1 1 0 0 1-.73-.27 1 1 0 0 1-.24-.66c0-.82.54-1.23 1.61-1.23H68Zm4.62-5.68v9.54h2.31v-4.07h3.14v4.07h2.31v-9.54h-2.31v3.47h-3.14v-3.47h-2.31zm12.63 5.47h3.13v4.07h2.32v-9.54h-2.32v3.47h-3.13v-3.47H82.9v9.54h2.31v-4.07zm9.79 4.07 2.28-4.12h.26v4.12h2.32v-9.54h-3.64a3.39 3.39 0 0 0-2.24.76 2.48 2.48 0 0 0-.87 2 2.82 2.82 0 0 0 .48 1.65 2.59 2.59 0 0 0 1.36.94l-2.46 4.24Zm1.14-7.53h1.4v1.4h-1.4c-.5 0-.74-.23-.74-.7s.19-.7.69-.7Zm15.37-2.16A4.52 4.52 0 0 0 108 132a5.47 5.47 0 0 0 0 7.06 5.1 5.1 0 0 0 7 0 5.47 5.47 0 0 0 0-7.06 4.52 4.52 0 0 0-3.49-1.4Zm1.72 7a2.2 2.2 0 0 1-3.44 0 3.43 3.43 0 0 1-.63-2.09 3.32 3.32 0 0 1 .63-2.06 2.17 2.17 0 0 1 3.44 0 3.32 3.32 0 0 1 .63 2.06 3.43 3.43 0 0 1-.63 2.1Zm9.9 2.84a3.89 3.89 0 0 0 3.17-1.32 5.42 5.42 0 0 0 1.12-3.6 5.32 5.32 0 0 0-1.12-3.52 3.85 3.85 0 0 0-3.17-1.35 2.84 2.84 0 0 0-1.43.36 2.07 2.07 0 0 0-.84.78v-1h-2.32v13.4h2.32v-4.73a2.43 2.43 0 0 0 1 .72 3 3 0 0 0 1.27.26Zm-1.88-2.76a3.47 3.47 0 0 1-.6-2.16 3.38 3.38 0 0 1 .6-2.14 2 2 0 0 1 3.13 0 3.38 3.38 0 0 1 .62 2.14 3.34 3.34 0 0 1-.62 2.14 2 2 0 0 1-3.13 0Zm10.56-4.92h4.05v-2.01h-6.37v9.54h2.32v-7.53zm8.95 1.67a4.66 4.66 0 0 0-2.91.85 2.71 2.71 0 0 0-1.1 2.27 2.83 2.83 0 0 0 .8 2.14 2.89 2.89 0 0 0 2 .75 3.51 3.51 0 0 0 2.89-1.36l.25 1.21h1.9v-5.69q0-4-4-4a3.82 3.82 0 0 0-2.38.74 3 3 0 0 0-1.2 1.91l2 .46a1.54 1.54 0 0 1 1.62-1.1c1.1 0 1.65.47 1.65 1.4v.42Zm1.57 2a1.76 1.76 0 0 1-.68 1.42 2.23 2.23 0 0 1-1.51.55.94.94 0 0 1-.72-.27 1 1 0 0 1-.25-.66c0-.82.54-1.23 1.61-1.23h1.55Zm6.94-.21h3.13v4.07h2.32v-9.54h-2.32v3.47h-3.13v-3.47h-2.32v9.54h2.32v-4.07zm8.21-5.47h2.31v9.54h-2.31zm1.16-1.23a1.43 1.43 0 0 0 1.06-.43 1.57 1.57 0 0 0 0-2.16 1.53 1.53 0 0 0-2.13 0 1.6 1.6 0 0 0 0 2.16 1.44 1.44 0 0 0 1.07.43Zm6.66 9.13a1.21 1.21 0 0 1-.94-.38 2.06 2.06 0 0 1-.43-1l-2.09.28a3.11 3.11 0 0 0 1.12 2.12 3.62 3.62 0 0 0 2.34.79 3.37 3.37 0 0 0 2.35-.87 3.06 3.06 0 0 0 .95-2.34 3 3 0 0 0-.67-2.07 2.23 2.23 0 0 0-1.78-.77 1.47 1.47 0 0 0-.33 0l2.27-2.94v-.72h-5.76v1.9H165l-1.66 2.15 1 1.29a1.91 1.91 0 0 1 .91-.24 1.1 1.1 0 0 1 .88.39 1.57 1.57 0 0 1 .34 1 1.54 1.54 0 0 1-.34 1 1.16 1.16 0 0 1-.83.41Zm12.7-4.05c0-2.67-1.31-4-3.95-4a3.85 3.85 0 0 0-2.39.74 3 3 0 0 0-1.2 1.91l2 .46a1.54 1.54 0 0 1 1.63-1.1c1.09 0 1.64.47 1.64 1.4v.42h-1.57a4.68 4.68 0 0 0-2.91.85 2.73 2.73 0 0 0-1.1 2.27 2.83 2.83 0 0 0 .8 2.14 2.9 2.9 0 0 0 2.06.75 3.54 3.54 0 0 0 2.89-1.36l.24 1.21H178Zm-2.31 1.87a1.75 1.75 0 0 1-.67 1.42 2.27 2.27 0 0 1-1.51.55 1 1 0 0 1-.73-.27 1 1 0 0 1-.24-.66c0-.82.53-1.23 1.6-1.23h1.55Zm12.45-5.72h-2.32v7.54h-3.08v-7.54h-2.31v9.54h6.1v2.16h2.02l.28-4.16h-.69v-7.54zm2.73 0h2.31v9.54h-2.31zm1.13-4.25a1.43 1.43 0 0 0-1.06.43 1.57 1.57 0 0 0 0 2.16 1.53 1.53 0 0 0 2.13 0 1.57 1.57 0 0 0 0-2.16 1.44 1.44 0 0 0-1.07-.43Zm8 2.61a2.08 2.08 0 0 0 1.58-.61 1.94 1.94 0 0 0 .62-1.46h-1.7a.5.5 0 0 1-.15.38.43.43 0 0 1-.35.15.5.5 0 0 1-.37-.15.54.54 0 0 1-.14-.38h-1.69a2 2 0 0 0 .59 1.46 2.18 2.18 0 0 0 1.61.61Zm1.48 1.64-3.23 5.89v-5.89h-2.31v9.54h2.52l3.23-5.88v5.88H204v-9.54h-2.52zM4.58 153.6a2.84 2.84 0 0 0-1.43.36 2.14 2.14 0 0 0-.84.78v-1H0v13.4h2.31v-4.73a2.51 2.51 0 0 0 .95.72 3 3 0 0 0 1.32.3 3.89 3.89 0 0 0 3.17-1.32 5.42 5.42 0 0 0 1.12-3.6A5.32 5.32 0 0 0 7.75 155a3.85 3.85 0 0 0-3.17-1.4Zm1.25 7.06a1.9 1.9 0 0 1-1.56.78 1.92 1.92 0 0 1-1.57-.76 3.47 3.47 0 0 1-.59-2.16 3.38 3.38 0 0 1 .59-2.14 1.93 1.93 0 0 1 1.57-.77 1.92 1.92 0 0 1 1.56.77 3.38 3.38 0 0 1 .62 2.14 3.34 3.34 0 0 1-.62 2.14Zm9.53-7.06a4.48 4.48 0 0 0-3.48 1.4 5.47 5.47 0 0 0 0 7.06 4.5 4.5 0 0 0 3.48 1.38 4.5 4.5 0 0 0 3.48-1.38 5.47 5.47 0 0 0 0-7.06 4.48 4.48 0 0 0-3.48-1.4Zm1.71 7a2.18 2.18 0 0 1-3.42 0 3.37 3.37 0 0 1-.64-2.09 3.27 3.27 0 0 1 .64-2.06 2.15 2.15 0 0 1 3.42 0 3.27 3.27 0 0 1 .64 2.06 3.37 3.37 0 0 1-.64 2.1Zm9.65-7a3.7 3.7 0 0 0-2.66 1c.1-1.68.94-2.52 2.53-2.52h.73q2.7 0 2.7-2.94h-1.44a1.35 1.35 0 0 1-1.39.89h-.67a4.26 4.26 0 0 0-3.62 1.71c-.84 1.13-1.27 3-1.27 5.68a6.89 6.89 0 0 0 1.29 4.39 4.18 4.18 0 0 0 3.45 1.62 4.59 4.59 0 0 0 3.48-1.38 4.91 4.91 0 0 0 1.32-3.54A5.16 5.16 0 0 0 30 155a4.07 4.07 0 0 0-3.28-1.4Zm1.4 7a2.19 2.19 0 0 1-3.43 0 3.43 3.43 0 0 1-.63-2.09 3.32 3.32 0 0 1 .63-2.06 2.16 2.16 0 0 1 3.43 0 3.32 3.32 0 0 1 .63 2.06 3.43 3.43 0 0 1-.63 2.1Zm9.42-7a4.52 4.52 0 0 0-3.49 1.4 5.51 5.51 0 0 0 0 7.06 4.54 4.54 0 0 0 3.49 1.38 4.52 4.52 0 0 0 3.46-1.38 5.47 5.47 0 0 0 0-7.06 4.5 4.5 0 0 0-3.46-1.4Zm1.71 7a2 2 0 0 1-1.71.83 2.07 2.07 0 0 1-1.72-.83 3.43 3.43 0 0 1-.63-2.09 3.32 3.32 0 0 1 .63-2.06 2 2 0 0 1 1.72-.85 2 2 0 0 1 1.71.85 3.33 3.33 0 0 1 .64 2.06 3.44 3.44 0 0 1-.64 2.1Zm3.76-4.84h2.51v7.53h2.31v-7.53h2.52v-2.01h-7.34v2.01zm13.21-2.16a4.51 4.51 0 0 0-3.48 1.4 5.47 5.47 0 0 0 0 7.06 5.09 5.09 0 0 0 7 0 5.51 5.51 0 0 0 0-7.06 4.52 4.52 0 0 0-3.52-1.4Zm1.72 7a2.07 2.07 0 0 1-1.72.83 2 2 0 0 1-1.71-.83 3.43 3.43 0 0 1-.63-2.09 3.32 3.32 0 0 1 .63-2.06 2 2 0 0 1 1.71-.85 2 2 0 0 1 1.72.85 3.32 3.32 0 0 1 .63 2.06 3.43 3.43 0 0 1-.63 2.1Zm13.2-6.85h-6.73l-1.19 7.54h-.78l.3 4.16h2v-2.16h4.81v2.16h2l.28-4.16h-.69Zm-2.31 7.54h-3.35l.83-5.53h2.52Zm8.4-7.69a3.82 3.82 0 0 0-2.38.74 3 3 0 0 0-1.19 1.91l2 .46a1.54 1.54 0 0 1 1.62-1.1c1.1 0 1.64.47 1.64 1.4v.42h-1.61a4.68 4.68 0 0 0-2.91.85 2.73 2.73 0 0 0-1.1 2.27 2.83 2.83 0 0 0 .8 2.14 2.89 2.89 0 0 0 2.05.75 3.53 3.53 0 0 0 2.85-1.36l.24 1.21h1.9v-5.69c.04-2.67-1.27-4-3.91-4Zm1.64 5.87a1.75 1.75 0 0 1-.67 1.42 2.25 2.25 0 0 1-1.51.55.94.94 0 0 1-.72-.27 1 1 0 0 1-.25-.66c0-.82.54-1.23 1.61-1.23h1.54Zm10.47-1.38a1.92 1.92 0 0 0 .63-.74 2 2 0 0 0 .27-1 2.3 2.3 0 0 0-.86-2 3.71 3.71 0 0 0-2.31-.65h-3.62v9.54h4.2a3.48 3.48 0 0 0 2.32-.7 2.51 2.51 0 0 0 .86-2.1 2.47 2.47 0 0 0-.43-1.44 2.51 2.51 0 0 0-1.06-.91Zm-3.58-2.44h1.18c.71 0 1.06.26 1.06.79s-.35.8-1.06.8h-1.18Zm1.24 5.64h-1.24v-2H87c1 0 1.45.34 1.45 1s-.45 1-1.45 1Zm13.59-7.54h-2.31v7.54h-3.07v-7.54H92.9v9.54h6.09v2.16H101l.28-4.16h-.69v-7.54zm2.73 0h2.31v9.54h-2.31zm1.15-4.25a1.43 1.43 0 0 0-1.06.43 1.57 1.57 0 0 0 0 2.16 1.43 1.43 0 0 0 1.06.43 1.42 1.42 0 0 0 1.06-.43 1.57 1.57 0 0 0 0-2.16 1.42 1.42 0 0 0-1.06-.43Zm9.8 8.59a1.92 1.92 0 0 0 .63-.74 2.05 2.05 0 0 0 .26-1 2.28 2.28 0 0 0-.86-2 3.71 3.71 0 0 0-2.31-.65h-3.61v9.54h4.19a3.5 3.5 0 0 0 2.33-.7 2.84 2.84 0 0 0 .43-3.54 2.57 2.57 0 0 0-1.06-.91Zm-3.58-2.44h1.17c.71 0 1.07.26 1.07.79s-.36.8-1.07.8h-1.17Zm1.27 5.64h-1.27v-2H112c1 0 1.45.34 1.45 1s-.52 1-1.45 1Zm14.18-4.87-2.59-6.38h-2.33l3.79 9.24-1.66 4.16h2.23l5.41-13.4h-2.31l-2.54 6.38zm13.36-2.67h-2.85l-3.05 3.75v-3.75h-2.31v9.54h2.31v-4.5l3.31 4.5h2.83l-4-5.14 3.76-4.4zm6.23-.15a2.9 2.9 0 0 0-1.44.36 2.17 2.17 0 0 0-.83.78v-1h-2.31v13.4h2.31v-4.73a2.43 2.43 0 0 0 .95.72 3 3 0 0 0 1.32.3 3.9 3.9 0 0 0 3.17-1.32 5.48 5.48 0 0 0 1.12-3.6 5.37 5.37 0 0 0-1.12-3.51 3.86 3.86 0 0 0-3.17-1.4Zm1.25 7.06a2 2 0 0 1-3.13 0 3.47 3.47 0 0 1-.6-2.16 3.38 3.38 0 0 1 .6-2.14 2 2 0 0 1 3.13 0 3.38 3.38 0 0 1 .61 2.14 3.34 3.34 0 0 1-.59 2.16Zm8.5-7.06a3.82 3.82 0 0 0-2.38.74 3 3 0 0 0-1.19 1.91l2 .46a1.54 1.54 0 0 1 1.62-1.1c1.1 0 1.64.47 1.64 1.4v.42h-1.56a4.68 4.68 0 0 0-2.91.85 2.73 2.73 0 0 0-1.1 2.27 2.83 2.83 0 0 0 .8 2.14 2.89 2.89 0 0 0 2.05.75 3.51 3.51 0 0 0 2.89-1.36l.24 1.21h1.9v-5.69c-.05-2.67-1.36-4-4-4Zm1.64 5.87a1.75 1.75 0 0 1-.67 1.42 2.23 2.23 0 0 1-1.51.55.94.94 0 0 1-.72-.27 1 1 0 0 1-.25-.66c0-.82.54-1.23 1.61-1.23h1.54Zm5.03-8.47a1.3 1.3 0 0 0-.37-1 1.26 1.26 0 0 0-.95-.38 1.23 1.23 0 0 0-1 .38 1.3 1.3 0 0 0-.38 1 1.34 1.34 0 0 0 .38 1 1.27 1.27 0 0 0 1 .38 1.3 1.3 0 0 0 .95-.38 1.34 1.34 0 0 0 .37-1Zm2.53-1.37a1.26 1.26 0 0 0-1 .38 1.3 1.3 0 0 0-.37 1 1.34 1.34 0 0 0 .37 1 1.3 1.3 0 0 0 1 .38 1.27 1.27 0 0 0 .95-.38 1.34 1.34 0 0 0 .38-1 1.3 1.3 0 0 0-.38-1 1.23 1.23 0 0 0-.95-.38Zm-3.09 4.12h2.31v9.54h-2.31zm10.5 3.47h-3.13v-3.47h-2.31v9.54h2.31v-4.07h3.13v4.07h2.31v-9.54h-2.31v3.47zm7.17 2.42v-5.89h-2.31v9.54h2.52l3.22-5.88v5.88H185v-9.54h-2.51l-3.23 5.89zM118.11 0h-8.88a1.69 1.69 0 0 0-1.41.61Q96.6 13 85.36 25.36a4.6 4.6 0 0 0-.45.77l-1.71-2L104.81.19l-.14-.19H95.1a1.76 1.76 0 0 0-1.48.64q-7.49 8.3-15 16.56l-1.33 1.45-1.89-1.37 7.74-8.57L90.79.23 90.71 0H81a1.49 1.49 0 0 0-1.27.56c-3.65 4.05-7.33 8.07-11 12.13a.91.91 0 0 1-1.25.26 45.46 45.46 0 0 0-16.8-3.61 40.59 40.59 0 0 0-10.57 1.24 44.53 44.53 0 0 0-34.4 45.34 44 44 0 0 0 4.56 17.83c.62 1.25 1.33 2.46 2 3.7a42.33 42.33 0 0 1 10.78-50c13-11 29.25-11.58 39.5-8l-32.8 36.14h10.28a1.63 1.63 0 0 0 1.33-.6q10.41-11.56 20.86-23.12C64.81 29 67.4 26.12 70 23.26c.17-.18.56-.37.73-.3a18.42 18.42 0 0 1 1.73 1L43.73 55.59h10.19a1.77 1.77 0 0 0 1.46-.67q11.39-12.64 22.81-25.26l.61-.66 1.7 1.69-22.6 24.9h10.28a1.5 1.5 0 0 0 1.27-.59l15.4-17 .8-.87C93.2 50.15 94 63.44 88 77.23l.21-.19.25-.39q11.72-21 1.37-42.76a1.33 1.33 0 0 1 .26-1.78q14.24-15.67 28.4-31.39c.16-.18.3-.37.57-.71Zm-35.3 84A13.89 13.89 0 0 1 61 83.85a13.9 13.9 0 0 1-21.9 0 13.91 13.91 0 0 1-21.91 0 4.35 4.35 0 0 0 0 .53 13.14 13.14 0 0 0 4.7 9.34 10.51 10.51 0 0 0 8.46 2.55 14.15 14.15 0 0 0 8.18-4.48A3.18 3.18 0 0 0 39 91a14 14 0 0 0 22.09.22c.19.17.36.36.56.52a46.54 46.54 0 0 0 3.84 2.9 10.9 10.9 0 0 0 7.38 1.65 11.78 11.78 0 0 0 9.75-9.19c.23-1 .29-2 .43-3Z"/><path fill="#fff" d="M26.12 62.84a8.94 8.94 0 0 0-4.68 10.48 8.7 8.7 0 0 0 9.16 6.33c6.53-.29 10.11-5.53 8.35-11.52-1.6-5.42-7.65-7.58-12.83-5.29Zm7.63 3.84A9 9 0 0 1 34.6 71a9.9 9.9 0 0 1-.83 4 3.56 3.56 0 0 1-3.49 2.29A3.6 3.6 0 0 1 26.75 75a9.79 9.79 0 0 1 .12-8.44 3.63 3.63 0 0 1 3.46-2.25 3.85 3.85 0 0 1 3.42 2.37ZM44.24 77.2c-.05 0-.08.06-.12.1v1.88h8.73v-2a3 3 0 0 1-1-.19c-.4-.23-1-.57-1-.9-.12-1.22 0-2.45 0-3.73a11.53 11.53 0 0 0 1.18 0 44.07 44.07 0 0 0 4.46-.49 4 4 0 0 0 3-2.42A5.12 5.12 0 0 0 55 62.54c-3.55 0-7.11-.06-10.66-.09 0 0-.09 0-.18.08v1.87c2 .29 2.16.5 2.16 2.44v7.86c-.04 1.99-.18 2.16-2.08 2.5Zm6.51-11.53a1.22 1.22 0 0 1 .73-.85 2.68 2.68 0 0 1 3.41 3.43 1.89 1.89 0 0 1-1.4 1.51c-.89.2-1.81.27-2.77.41 0-1.63-.05-3.07.03-4.5Zm2.1 13.51zM69.8 64.45h.44v-2H61v2a2.5 2.5 0 0 1 2.32 1.3c1.83 3.1 3.68 6.25 5.59 9.32.1.17.21.5.13.6a4.76 4.76 0 0 1-1.2 1.33c-.92.52-1.57.09-1.58-1a1.78 1.78 0 0 0-1.05-1.76A2.31 2.31 0 0 0 62 76.09a3 3 0 0 0 1.83 3 5.75 5.75 0 0 0 6.55-1 13.43 13.43 0 0 0 2-3c1.33-2.66 2.56-5.38 3.82-8.09.59-1.27 1.17-2.54 2.85-2.5v-2H72v2h.43c1.36.23 1.66.6 1.18 1.89-.57 1.54-1.28 3-2 4.74-1-1.81-1.93-3.42-2.76-5.07-.63-1.17-.34-1.56.95-1.61Zm-19.69 36.43a13.69 13.69 0 0 1-11-5.31c0 7.31 4.49 12.69 11.27 12.58 6.18-.09 11.33-6.31 10.53-12.51a13.58 13.58 0 0 1-10.8 5.24Z"/><path fill="#fff" d="M40.71 71.37c0 3.23-2 7-7.27 8.14a9 9 0 0 0 9.17-4.36 9.36 9.36 0 0 0-1.83-10.84c-1.83-1.74-5.89-3-7.21-2.18 4.89 1.49 7.21 4.51 7.14 9.24Z"/></svg>