<svg xmlns="http://www.w3.org/2000/svg" xmlns:xlink="http://www.w3.org/1999/xlink" style="display:none"><symbol id="annotation" viewBox="0 0 24 24"><path d="M12 22.5a1 1 0 01-.87-.56L9 17.54H4.87a3.37 3.37 0 01-3.37-3.37v-9.3A3.37 3.37 0 014.87 1.5h14.26a3.37 3.37 0 013.37 3.37v9.3a3.37 3.37 0 01-3.37 3.37h-3.95L12.88 22a1 1 0 01-.88.5zm-7.13-19a1.39 1.39 0 00-1.39 1.37v9.3a1.39 1.39 0 001.39 1.39h4.75a1 1 0 01.9.56L12 19.29l1.67-3.2a1 1 0 01.87-.53h4.55a1.39 1.39 0 001.39-1.39v-9.3a1.39 1.39 0 00-1.39-1.39zm11.88 7.18a1 1 0 01-1-.95v-.11a1 1 0 012 0 1 1 0 01-1 1.04zm-4.75 0a1 1 0 01-1-.95v-.11a1 1 0 112 0 1 1 0 01-1 1.04zm-4.75 0a1 1 0 01-1-.95v-.11a1 1 0 012 0 1 1 0 01-1 1.04z"/></symbol><symbol id="arrow-left" viewBox="0 0 24 24"><path d="M10.83 19a1 1 0 01-.71-.3l-5.83-6a1 1 0 01-.19-.26v-.07A1 1 0 014 12a1 1 0 01.07-.34v-.07a1.15 1.15 0 01.19-.26l5.83-6a1 1 0 111.43 1.4L7.37 11H19a1 1 0 010 2H7.37l4.18 4.3a1 1 0 01-.72 1.7z"/></symbol><symbol id="arrow-right" viewBox="0 0 24 24"><path d="M13.17 19a1 1 0 01-.72-1.7l4.18-4.3H5a1 1 0 010-2h11.63l-4.18-4.3a1 1 0 111.43-1.4l5.83 6a.83.83 0 01.19.27 1.07 1.07 0 010 .76.83.83 0 01-.19.27l-5.83 6a1 1 0 01-.71.4z"/></symbol><symbol id="calendar" viewBox="0 0 24 24"><path d="M17.34 22.45H6.66a4.19 4.19 0 01-4.16-4.22V7.39a4.22 4.22 0 013-4v-.88a1 1 0 111.9 0v.67h9v-.67a1 1 0 111.9 0v.78a4.2 4.2 0 013.21 4.1v10.84a4.19 4.19 0 01-4.17 4.22zM4.4 9.7v8.53a2.27 2.27 0 002.26 2.29h10.68a2.27 2.27 0 002.26-2.29V9.7H4.4zm.12-1.92H19.6v-.4a2.28 2.28 0 00-2.26-2.28H6.66A2.28 2.28 0 004.4 7.39v.4zm8 10.64a.92.92 0 01-.95-.92v-.08a1 1 0 111.9 0 1 1 0 01-.94 1zm-4.8 0a.92.92 0 01-1-.92v-.08a1 1 0 111.91 0 1 1 0 01-.9 1zM16.81 14a.92.92 0 01-.95-.93V13a1 1 0 111.9 0 1 1 0 01-.95 1zm-4.28 0a.93.93 0 01-.95-.93V13a1 1 0 111.9 0 1 1 0 01-.95 1z"/></symbol><symbol id="chevron-down" viewBox="0 0 24 24"><path d="M12 15.4a1.05 1.05 0 01-.71-.29l-4.8-4.8a1 1 0 011.42-1.42L12 13l4.09-4.1a1 1 0 011.42 1.42l-4.8 4.8a1 1 0 01-.71.28z"/></symbol><symbol id="chevron-left" viewBox="0 0 24 24"><path d="M14.4 17.8a1 1 0 01-.71-.29l-4.8-4.8a1 1 0 010-1.42l4.8-4.8a1 1 0 011.42 1.42L11 12l4.1 4.09a1 1 0 010 1.42 1 1 0 01-.7.29z"/></symbol><symbol id="chevron-right" viewBox="0 0 24 24"><path d="M9.6 17.8a1 1 0 01-.71-.29 1 1 0 010-1.42L13 12 8.89 7.91a1 1 0 011.42-1.42l4.8 4.8a1 1 0 010 1.42l-4.8 4.8a1 1 0 01-.71.29z"/></symbol><symbol id="chevron-up" viewBox="0 0 24 24"><path d="M16.8 15.4a1 1 0 01-.71-.29L12 11l-4.09 4.1a1 1 0 01-1.42-1.42l4.8-4.8a1 1 0 011.42 0l4.8 4.8a1 1 0 010 1.42 1 1 0 01-.71.3z"/></symbol><symbol id="close" viewBox="0 0 24 24"><path d="M18.43 19.5a1.06 1.06 0 01-.76-.31L12 13.52l-5.67 5.67a1.07 1.07 0 01-1.52-1.52L10.48 12 4.81 6.33a1.07 1.07 0 011.52-1.52L12 10.48l5.67-5.67a1.07 1.07 0 011.52 1.52L13.52 12l5.67 5.67a1.09 1.09 0 010 1.52 1.07 1.07 0 01-.76.31z"/></symbol><symbol id="compass" viewBox="0 0 24 24"><path d="M12.13 22.48a10.6 10.6 0 1110.6-10.6 10.62 10.62 0 01-10.6 10.6zm0-19.2a8.6 8.6 0 108.6 8.6 8.61 8.61 0 00-8.6-8.6z"/><path d="M8.88 16.12a1 1 0 01-.71-.29 1 1 0 01-.28-.83l.85-5.65a1 1 0 01.84-.84l5.65-.85a1 1 0 01.85.28 1 1 0 01.28.86l-.85 5.64a1 1 0 01-.84.84L9 16.11zm1.72-5.77l-.53 3.58 3.58-.53.53-3.58z"/></symbol><symbol id="email" viewBox="0 0 24 24"><path d="M19.2 20.2H4.8a3.41 3.41 0 01-3.4-3.4V7.2a3.41 3.41 0 013.4-3.4h14.4a3.41 3.41 0 013.4 3.4v9.6a3.41 3.41 0 01-3.4 3.4zM3.4 7.2v9.6a1.4 1.4 0 001.4 1.4h14.4a1.4 1.4 0 001.4-1.4V7.2a1 1 0 01-.23.22l-7.12 4.93a2.2 2.2 0 01-2.5 0L3.63 7.42a1 1 0 01-.23-.22zm1.4-1.4l7.09 4.9a.18.18 0 00.22 0l7.09-4.9z"/></symbol><symbol id="facebook"><path d="M12 2a10 10 0 1010 10A10 10 0 0012 2zm1 17.93V14.5h2a1 1 0 000-2h-2v-2a1.28 1.28 0 01.09-.48 1.62 1.62 0 01.27-.41 1.62 1.62 0 01.41-.27 1.94 1.94 0 01.48-.09h1.5a1 1 0 000-2h-1.51a3.25 3.25 0 00-1.24.24 3.29 3.29 0 00-1.77 1.77A3.26 3.26 0 0011 10.5v2H9a1 1 0 000 2h2v5.43a8 8 0 112 0z"/></symbol><symbol id="file-text" viewBox="0 0 24 24"><path d="M17.4 22.6H6.6a3.41 3.41 0 01-3.4-3.4V4.8a3.41 3.41 0 013.4-3.4h10.8a3.41 3.41 0 013.4 3.4v14.4a3.41 3.41 0 01-3.4 3.4zM6.6 3.4a1.4 1.4 0 00-1.4 1.4v14.4a1.4 1.4 0 001.4 1.4h10.8a1.4 1.4 0 001.4-1.4V4.8a1.4 1.4 0 00-1.4-1.4zm5.4 12H8.4a1 1 0 010-2H12a1 1 0 010 2zm3.6-3.6H8.4a1 1 0 010-2h7.2a1 1 0 010 2zm0-3.6H8.4a1 1 0 110-2h7.2a1 1 0 010 2z"/></symbol><symbol id="file" viewBox="0 0 24 24"><path d="M20.42 7.87a.93.93 0 00-.21-.33L15 2.29a1 1 0 00-.32-.21 1.09 1.09 0 00-.43-.08h-9A1.74 1.74 0 003.5 3.75v16.5a1.74 1.74 0 00.5 1.24 1.8 1.8 0 001.25.51h13.5a1.74 1.74 0 001.75-1.75v-12a1 1 0 00-.08-.38zm-5.17-2.46l1.84 1.84h-1.84zM5.5 20V4h7.75v4.25a1 1 0 001 1h4.25V20z"/></symbol><symbol id="folder-open" viewBox="0 0 24 24"><path d="M18 20.58H3.59a2 2 0 01-2-2V5.42a2 2 0 012-2h5.66a2 2 0 011.42.58l1.43 1.44h6.67a2 2 0 012 2v2.08a2 2 0 011.53 2.6l-2.36 7.09A2 2 0 0118 20.58zm-11.35-2H18l2.37-7.1H9.35zm2.6-13.16H3.59v13.16h1a1.87 1.87 0 01.11-.51l2.74-7.29a2 2 0 011.87-1.3h9.42v-2H12.1a2 2 0 01-1.41-.58z"/></symbol><symbol id="globe" viewBox="0 0 24 24"><path d="M12 1a11 11 0 1011 11A11 11 0 0012 1zM3.06 13H7a18.4 18.4 0 001.66 7.36A9 9 0 013.06 13zm4-2h-4a9 9 0 015.62-7.36A18.4 18.4 0 007 11zm5 10c-1.15 0-2.78-3.08-3-8h6c-.28 4.92-1.91 8-3.06 8zM9 11c.2-4.92 1.83-8 3-8s2.78 3.08 3 8zm6.3 9.36A18.4 18.4 0 0017 13h4a9 9 0 01-5.68 7.36zM17 11a18.4 18.4 0 00-1.66-7.36 9 9 0 015.6 7.36z"/></symbol><symbol id="home" viewBox="0 0 24 24"><path d="M19.68 22.6H4.32a2.88 2.88 0 01-2.92-2.83V9.24a2.22 2.22 0 011-1.82l8.3-5.62a2.32 2.32 0 012.6 0l8.32 5.62a2.2 2.2 0 011 1.82v10.53a2.88 2.88 0 01-2.94 2.83zM12 3.4a.37.37 0 00-.18.05L3.5 9.08a.2.2 0 00-.1.16v10.53a.88.88 0 00.92.83h15.36a.88.88 0 00.92-.83V9.24a.2.2 0 00-.1-.16l-8.32-5.63A.37.37 0 0012 3.4z"/></symbol><symbol id="image" viewBox="0 0 24 24"><path d="M19.2 22.6H4.8a3.47 3.47 0 01-3.4-3.53V4.93A3.47 3.47 0 014.8 1.4h14.4a3.47 3.47 0 013.4 3.53v14.14a3.47 3.47 0 01-3.4 3.53zM4.8 3.4a1.47 1.47 0 00-1.4 1.53v14.14a1.47 1.47 0 001.4 1.53h14.4a1.47 1.47 0 001.4-1.53V4.93a1.47 1.47 0 00-1.4-1.53z"/><path d="M18 16.6H6a1 1 0 01-.83-1.6l3-4.49a1 1 0 01.73-.45 1 1 0 01.81.29l1.13 1.14 2.33-3.48A1 1 0 0114 7.6a1 1 0 01.84.5l4 7a1 1 0 010 1 1 1 0 01-.84.5zm-10.13-2h8.41l-2.35-4.1-2.1 3.15a1 1 0 01-.73.44 1 1 0 01-.81-.28l-1.13-1.14z"/></symbol><symbol id="info" viewBox="0 0 24 24"><path d="M18 22.6H6A4.6 4.6 0 011.4 18V6A4.6 4.6 0 016 1.4h12A4.6 4.6 0 0122.6 6v12a4.6 4.6 0 01-4.6 4.6zM6 3.4A2.61 2.61 0 003.4 6v12A2.61 2.61 0 006 20.6h12a2.61 2.61 0 002.6-2.6V6A2.61 2.61 0 0018 3.4zm6 14.4a1 1 0 01-1-1V12a1 1 0 012 0v4.8a1 1 0 01-1 1zm0-8.38a1 1 0 01-1-1 1 1 0 112 0 1 1 0 01-1 1z"/></symbol><symbol id="instagram" viewBox="0 0 24 24"><path d="M12 16.75A4.75 4.75 0 1116.75 12 4.75 4.75 0 0112 16.75zm0-7.5A2.75 2.75 0 1014.75 12 2.75 2.75 0 0012 9.25z"/><path d="M16.12 21.62H7.88a5.5 5.5 0 01-5.5-5.5V7.88a5.5 5.5 0 015.5-5.5h8.24a5.5 5.5 0 015.5 5.5v8.24a5.5 5.5 0 01-5.5 5.5zM7.88 4.38a3.5 3.5 0 00-3.5 3.5v8.24a3.5 3.5 0 003.5 3.5h8.24a3.5 3.5 0 003.5-3.5V7.88a3.5 3.5 0 00-3.5-3.5z"/><path d="M16.88 8.25a1.13 1.13 0 10-1.13-1.13 1.12 1.12 0 001.13 1.13z"/></symbol><symbol id="linkedin" viewBox="0 0 24 24"><path d="M19.88 21.62H4.12a1.74 1.74 0 01-1.74-1.74V4.12a1.74 1.74 0 011.74-1.74h15.76a1.74 1.74 0 011.74 1.74v15.76a1.74 1.74 0 01-1.74 1.74zm-15.5-2h15.24V4.38H4.38zm15.5-15.24z"/><path d="M8.25 17.5a1 1 0 01-1-1v-6a1 1 0 012 0v6a1 1 0 01-1 1zM16.44 10.56a3.74 3.74 0 00-4.35-.56 1 1 0 00-.84-.5 1 1 0 00-1 1v6a1 1 0 002 0v-3.38a1.58 1.58 0 01.48-1.12A1.64 1.64 0 0115 12a1.58 1.58 0 01.48 1.14v3.36a1 1 0 002 0v-3.38a3.64 3.64 0 00-1.04-2.56zM8.25 8.62A1.12 1.12 0 107.12 7.5a1.13 1.13 0 001.13 1.12z"/></symbol><symbol id="marker" viewBox="0 0 24 24"><path d="M7.83 22.6h-5a1 1 0 010-2h1.5V2.4a1 1 0 011-1h15.85a1 1 0 01.9 1.45L19.8 7.41 22.08 12a1 1 0 01-.9 1.45H6.32v7.15h1.51a1 1 0 010 2zM6.32 11.42h13.24l-1.78-3.56a1 1 0 010-.9l1.78-3.56H6.32z"/></symbol><symbol id="menu" viewBox="0 0 24 24"><path d="M13.8 20.2H2.4a1 1 0 110-2h11.4a1 1 0 010 2zm7.8-7.2H2.4a1 1 0 010-2h19.2a1 1 0 010 2zm0-7.2H10.2a1 1 0 010-2h11.4a1 1 0 010 2z"/></symbol><symbol id="phone" viewBox="0 0 24 24"><path d="M17.5 22h-.28a10.65 10.65 0 01-3.93-1.17 21.21 21.21 0 01-7.1-5.54 19.47 19.47 0 01-3.47-5.81 7.44 7.44 0 01-.57-3.29 3.16 3.16 0 01.92-2l1.56-1.55a1.89 1.89 0 012.78 0c.28.26.56.54.85.84l1.67 1.68a2 2 0 01.66 1.42A2 2 0 019.93 8l-.5.51a2.23 2.23 0 01-.23.22l-.2.13A9 9 0 0010.37 11a15.81 15.81 0 003.82 3.47c.16.1.32.18.47.26s.39.19.54.28l.87-.92a1.86 1.86 0 012.8 0l2.5 2.49a2.25 2.25 0 01.19 2.57.8.8 0 01-.2.28c-.43.43-1.19 1.19-1.38 1.41A3.2 3.2 0 0117.5 22zM6 4.08L4.48 5.62a1.11 1.11 0 00-.34.73 5.71 5.71 0 00.46 2.43A17.47 17.47 0 007.73 14a19.19 19.19 0 006.42 5 8.91 8.91 0 003.2 1h.15a1.22 1.22 0 001-.41c.22-.27 1-1 1.32-1.36a1.2 1.2 0 00.06-.24l-2.42-2.41-.87.87a2 2 0 01-1.4.61 1.93 1.93 0 01-.9-.22l-.12-.07c-.11-.07-.23-.12-.35-.19a6.43 6.43 0 01-.69-.37 17.62 17.62 0 01-4.31-3.91 11.1 11.1 0 01-1.64-2.69.38.38 0 010-.1 1.9 1.9 0 01.46-2 .43.43 0 01.1-.09A2 2 0 018 7.14L8.12 7l.4-.4-1.69-1.72L6 4.09zm14.66 14.69zm0 0zm-.66-.72z"/></symbol><symbol id="play" viewBox="0 0 24 24"><path d="M6.09 22.6a2.14 2.14 0 01-1-.25A2.65 2.65 0 013.85 20L3.8 4A2.44 2.44 0 015 1.68a2.61 2.61 0 012.7.22l11 8.13a2.58 2.58 0 011.51 2.12 2.68 2.68 0 01-1.51 2.31l-11 7.66a3.48 3.48 0 01-1.61.48zm0-19.2h-.13c-.07 0-.14.22-.13.52v16a1.21 1.21 0 00.17.68 1.3 1.3 0 00.68-.21l10.89-7.59c.49-.32.62-.55.63-.6a1.4 1.4 0 00-.56-.47l-.09-.06-11-8.12a.93.93 0 00-.49-.15z"/></symbol><symbol id="quote" viewBox="0 0 24 24"><path d="M21.29 19h-2.45a1.74 1.74 0 01-1.71-1.75V12.6a2.13 2.13 0 00-2.23-2h-1.22A1.74 1.74 0 0112 8.85v-2.1A1.74 1.74 0 0113.68 5h1.22a7.87 7.87 0 018.1 7.6v4.65A1.74 1.74 0 0121.29 19zm-2.16-2H21v-4.4A5.87 5.87 0 0014.9 7H14v1.6h.93a4.12 4.12 0 014.23 4zm-8.81 2H7.88a1.74 1.74 0 01-1.72-1.75V12.6a2.13 2.13 0 00-2.22-2H2.71A1.74 1.74 0 011 8.85v-2.1A1.74 1.74 0 012.71 5h1.23A7.87 7.87 0 0112 12.6v4.65A1.74 1.74 0 0110.32 19zm-2.16-2H10v-4.4A5.86 5.86 0 003.94 7H3v1.6h.94a4.11 4.11 0 014.22 4z"/></symbol><symbol id="search" viewBox="0 0 24 24"><path d="M20.4 21.4a1 1 0 01-.7-.28l-2.81-2.72a8.85 8.85 0 111.43-1.4l2.78 2.69a1 1 0 01-.7 1.72zm-9-16.8a6.84 6.84 0 106.84 6.84 6.85 6.85 0 00-6.8-6.84z"/></symbol><symbol id="target" viewBox="0 0 24 24"><rect x="11" y="11" width="2.08" height="2.08" rx="1"/><path d="M12 6.2a5.8 5.8 0 105.8 5.8A5.8 5.8 0 0012 6.2zm0 9.6a3.8 3.8 0 113.8-3.8 3.8 3.8 0 01-3.8 3.8z"/><path d="M12 1.4A10.6 10.6 0 1022.6 12 10.61 10.61 0 0012 1.4zm0 19.2a8.6 8.6 0 118.6-8.6 8.6 8.6 0 01-8.6 8.6z"/></symbol><symbol id="telegram" viewBox="0 0 24 24"><path d="M22.31 3.76a1.79 1.79 0 00-.52-.76 2 2 0 00-.28-.19h-.06a1.88 1.88 0 00-.5-.18 1.77 1.77 0 00-.94.1L2.71 9.47A1.75 1.75 0 003 12.82l4.19.84V19a1.76 1.76 0 00.3 1 1.66 1.66 0 00.79.64 1.69 1.69 0 00.66.13 2.19 2.19 0 00.36 0 1.74 1.74 0 00.88-.48l2.26-2.27L16 21a1.78 1.78 0 00.8.4 2.19 2.19 0 00.36 0 1.59 1.59 0 00.53-.08 1.76 1.76 0 001.17-1.27l3.53-15.4a1.72 1.72 0 00-.08-.89zm-7.6 3.15L8 11.77 4.23 11zM9.2 18.34v-3.29l1.8 1.54zm7.78.89L9.8 12.92l10.33-7.46z"/></symbol><symbol id="twitter" viewBox="0 0 24 24"><path d="M6.38 21.25C3 21.25 2 19.94 1.79 19.68a1 1 0 01-.12-.86 1 1 0 01.6-.63 10.45 10.45 0 003.43-2.26c-1.59-1.36-4.6-4.85-4-11.52a1 1 0 011.71-.61 17.65 17.65 0 006.47 3.94V7.5a4.72 4.72 0 017.34-4A4.89 4.89 0 0118.66 5h2.72a1 1 0 01.7 1.71l-2.74 2.74a13 13 0 01-12.96 11.8zm-1.52-2.13a7.74 7.74 0 001.52.13 11 11 0 0011-10.31 1 1 0 01.29-.65L19 7h-.9a1 1 0 01-.91-.59 2.77 2.77 0 00-1-1.2 2.94 2.94 0 00-1.52-.46 2.73 2.73 0 00-1.91.78 2.77 2.77 0 00-.82 2V9a1 1 0 01-1.17 1 16.82 16.82 0 01-7.14-3.37c.21 5.92 3.83 8.16 4 8.26A1 1 0 018 16.3a9.81 9.81 0 01-3.14 2.82z"/></symbol><symbol id="upload" viewBox="0 0 24 24"><path d="M12 22a1 1 0 01-1-1v-9.62l-3.11 3a1 1 0 01-1.38-1.44l4.79-4.62a1.26 1.26 0 01.28-.19A1.21 1.21 0 0112 8a1.07 1.07 0 01.32.07h.05a1.07 1.07 0 01.28.19l4.8 4.59a1 1 0 01-1.38 1.44l-3.11-3V21a1 1 0 01-.96 1zM4.22 4.58a1 1 0 01-.71-.29 1 1 0 010-1.42A3 3 0 015.7 2h12.6a3.09 3.09 0 012.2.91 1 1 0 010 1.42 1 1 0 01-1.41 0A1.1 1.1 0 0018.3 4H5.7a1.06 1.06 0 00-.77.32 1 1 0 01-.71.26z"/></symbol><symbol id="video-on" viewBox="0 0 24 24"><path d="M13.2 18.4H4.8A3.4 3.4 0 011.4 15V9a3.41 3.41 0 013.4-3.4h8.4A3.4 3.4 0 0116.6 9v.4l3.34-2.27h.09A1.72 1.72 0 0121.75 7a1.69 1.69 0 01.83 1.49v7a1.61 1.61 0 01-.76 1.51 1.74 1.74 0 01-1.82-.1l-3.4-2.46V15a3.4 3.4 0 01-3.4 3.4zM4.8 7.6A1.4 1.4 0 003.4 9v6a1.4 1.4 0 001.4 1.4h8.4a1.4 1.4 0 001.4-1.4V9a1.4 1.4 0 00-1.4-1.4zM16.6 12l4 2.87V9.13l-4 2.71zm-4.6-.8H9.6a1 1 0 110-2H12a1 1 0 010 2z"/></symbol><symbol id="youtube" viewBox="0 0 24 24"><path d="M10.5 16a1 1 0 01-.47-.12A1 1 0 019.5 15V9a1 1 0 01.5-.88 1 1 0 011 .05l4.5 3a1 1 0 010 1.66l-4.5 3a1 1 0 01-.5.17zm1-5.13v2.26L13.2 12z"/><path d="M12 20.46c-.58 0-5.51 0-8.65-1.23a2.7 2.7 0 01-1-.68 2.61 2.61 0 01-.54-1A22.49 22.49 0 011.25 12a22.49 22.49 0 01.54-5.52 2.68 2.68 0 01.54-1 2.65 2.65 0 01.95-.67c3.3-1.26 8.5-1.24 8.73-1.24s5.41 0 8.69 1.24a2.56 2.56 0 011 .67 2.61 2.61 0 01.54 1 22.55 22.55 0 01.51 5.52 22.55 22.55 0 01-.54 5.52 2.52 2.52 0 01-1.5 1.7c-3.29 1.26-8.5 1.24-8.72 1.24zm0-14.92c-.33 0-5.13 0-8 1.1a.52.52 0 00-.17.13.5.5 0 00-.11.23 21.28 21.28 0 00-.47 5 20.56 20.56 0 00.48 5 .38.38 0 00.1.2.46.46 0 00.2.14c2.91 1.12 7.9 1.1 8 1.1s5.06 0 8-1.1a.64.64 0 00.17-.13.5.5 0 00.12-.21 21.28 21.28 0 00.47-5 21.28 21.28 0 00-.47-5 .49.49 0 00-.11-.2.46.46 0 00-.2-.14c-2.91-1.12-7.92-1.11-8-1.1z"/></symbol></svg>