<svg xmlns="http://www.w3.org/2000/svg" viewBox="0 0 24 24"><path d="M12,22.5h0a1,1,0,0,1-.87-.56L9,17.54H4.87A3.37,3.37,0,0,1,1.5,14.17V4.87A3.37,3.37,0,0,1,4.87,1.5H19.13A3.37,3.37,0,0,1,22.5,4.87v9.3a3.37,3.37,0,0,1-3.37,3.37H15.18L12.88,22A1,1,0,0,1,12,22.5Zm-7.13-19A1.39,1.39,0,0,0,3.48,4.87v9.3a1.39,1.39,0,0,0,1.39,1.39H9.62a1,1,0,0,1,.9.56L12,19.29l1.67-3.2a1,1,0,0,1,.87-.53h4.55a1.39,1.39,0,0,0,1.39-1.39V4.87a1.39,1.39,0,0,0-1.39-1.39Zm11.88,7.18a1,1,0,0,1-1-.95V9.62a1,1,0,0,1,2,0A1,1,0,0,1,16.75,10.66Zm-4.75,0a1,1,0,0,1-1-.95V9.62a1,1,0,1,1,2,0A1,1,0,0,1,12,10.66Zm-4.75,0a1,1,0,0,1-1-.95V9.62a1,1,0,0,1,2,0A1,1,0,0,1,7.25,10.66Z"/></svg>