<svg xmlns="http://www.w3.org/2000/svg" viewBox="0 0 24 24"><path d="M19.2,22.6H4.8a3.47,3.47,0,0,1-3.4-3.53V4.93A3.47,3.47,0,0,1,4.8,1.4H19.2a3.47,3.47,0,0,1,3.4,3.53V19.07A3.47,3.47,0,0,1,19.2,22.6ZM4.8,3.4A1.47,1.47,0,0,0,3.4,4.93V19.07A1.47,1.47,0,0,0,4.8,20.6H19.2a1.47,1.47,0,0,0,1.4-1.53V4.93A1.47,1.47,0,0,0,19.2,3.4Z"/><path d="M18,16.6H6A1,1,0,0,1,5.17,15l3-4.49a1,1,0,0,1,.73-.45,1,1,0,0,1,.81.29l1.13,1.14,2.33-3.48A1,1,0,0,1,14,7.6a1,1,0,0,1,.84.5l4,7a1,1,0,0,1,0,1A1,1,0,0,1,18,16.6Zm-10.13-2h8.41l-2.35-4.1-2.1,3.15a1,1,0,0,1-.73.44,1,1,0,0,1-.81-.28L9.16,12.67Z"/></svg>