<svg xmlns="http://www.w3.org/2000/svg" viewBox="0 0 24 24"><path d="M12,16.75A4.75,4.75,0,1,1,16.75,12,4.75,4.75,0,0,1,12,16.75Zm0-7.5A2.75,2.75,0,1,0,14.75,12,2.75,2.75,0,0,0,12,9.25Z"/><path d="M16.12,21.62H7.88a5.5,5.5,0,0,1-5.5-5.5V7.88a5.5,5.5,0,0,1,5.5-5.5h8.24a5.5,5.5,0,0,1,5.5,5.5v8.24A5.5,5.5,0,0,1,16.12,21.62ZM7.88,4.38a3.5,3.5,0,0,0-3.5,3.5v8.24a3.5,3.5,0,0,0,3.5,3.5h8.24a3.5,3.5,0,0,0,3.5-3.5V7.88a3.5,3.5,0,0,0-3.5-3.5Z"/><path d="M16.88,8.25a1.13,1.13,0,1,0-1.13-1.13A1.12,1.12,0,0,0,16.88,8.25Z"/></svg>