<svg xmlns="http://www.w3.org/2000/svg" width="24" height="24" viewBox="0 0 24 24"><path d="M8.27,21.5h0a5.57,5.57,0,0,1-4-1.73,5.62,5.62,0,0,1-1.7-4,5.71,5.71,0,0,1,1.66-4.05L6.47,9.36a1,1,0,0,1,1.47,0,1,1,0,0,1,0,1.48L5.62,13.17a3.61,3.61,0,0,0,0,5.13,3.57,3.57,0,0,0,2.59,1.11,3.47,3.47,0,0,0,2.53-1l2.32-2.33a1,1,0,0,1,1.47,0,1.05,1.05,0,0,1,0,1.47l-2.32,2.33A5.55,5.55,0,0,1,8.27,21.5Zm.22-5a1,1,0,0,1-.74-.31,1.05,1.05,0,0,1,0-1.47l7-7A1,1,0,0,1,16.17,9.2l-7,7A1,1,0,0,1,8.49,16.5Zm8.3-1.58a1,1,0,0,1-.73-.31,1,1,0,0,1,0-1.47l2.32-2.33a3.67,3.67,0,0,0-2.63-6.22h0a3.51,3.51,0,0,0-2.51,1L10.9,7.94a1,1,0,0,1-1.47,0,1.05,1.05,0,0,1,0-1.47l2.32-2.33a5.61,5.61,0,0,1,4-1.64A5.81,5.81,0,0,1,21.5,8.24a5.69,5.69,0,0,1-1.66,4l-2.31,2.33A1,1,0,0,1,16.79,14.92Z"/></svg>