<svg xmlns="http://www.w3.org/2000/svg" viewBox="0 0 24 24"><path d="M19.88,21.62H4.12a1.74,1.74,0,0,1-1.74-1.74V4.12A1.74,1.74,0,0,1,4.12,2.38H19.88a1.74,1.74,0,0,1,1.74,1.74V19.88A1.74,1.74,0,0,1,19.88,21.62Zm-15.5-2H19.62V4.38H4.38ZM19.88,4.38Z"/><path d="M8.25,17.5a1,1,0,0,1-1-1v-6a1,1,0,0,1,2,0v6A1,1,0,0,1,8.25,17.5Z"/><path d="M16.44,10.56A3.74,3.74,0,0,0,12.09,10a1,1,0,0,0-.84-.5,1,1,0,0,0-1,1v6a1,1,0,0,0,2,0V13.12A1.58,1.58,0,0,1,12.73,12,1.64,1.64,0,0,1,15,12a1.58,1.58,0,0,1,.48,1.14V16.5a1,1,0,0,0,2,0V13.12A3.64,3.64,0,0,0,16.44,10.56Z"/><path d="M8.25,8.62A1.12,1.12,0,1,0,7.12,7.5,1.13,1.13,0,0,0,8.25,8.62Z"/></svg>