<svg xmlns="http://www.w3.org/2000/svg" viewBox="0 0 24 24"><path d="M17.5,22h-.28a10.65,10.65,0,0,1-3.93-1.17,21.21,21.21,0,0,1-7.1-5.54A19.47,19.47,0,0,1,2.72,9.48a7.44,7.44,0,0,1-.57-3.29,3.16,3.16,0,0,1,.92-2L4.63,2.64a1.89,1.89,0,0,1,2.78,0c.28.26.56.54.85.84L9.93,5.16a2,2,0,0,1,.66,1.42A2,2,0,0,1,9.93,8l-.5.51a2.23,2.23,0,0,1-.23.22L9,8.86H9A9,9,0,0,0,10.37,11a15.81,15.81,0,0,0,3.82,3.47c.16.1.32.18.47.26s.39.19.54.28l.87-.92a1.86,1.86,0,0,1,2.8,0l2.5,2.49a2.25,2.25,0,0,1,.19,2.57.8.8,0,0,1-.2.28c-.43.43-1.19,1.19-1.38,1.41A3.2,3.2,0,0,1,17.5,22ZM6,4.08H6L4.48,5.62a1.11,1.11,0,0,0-.34.73A5.71,5.71,0,0,0,4.6,8.78,17.47,17.47,0,0,0,7.73,14a19.19,19.19,0,0,0,6.42,5,8.91,8.91,0,0,0,3.2,1h.15a1.22,1.22,0,0,0,1-.41c.22-.27,1-1,1.32-1.36a1.2,1.2,0,0,0,.06-.24l-2.42-2.41-.87.87a2,2,0,0,1-1.4.61,1.93,1.93,0,0,1-.9-.22l-.12-.07c-.11-.07-.23-.12-.35-.19a6.43,6.43,0,0,1-.69-.37,17.62,17.62,0,0,1-4.31-3.91A11.1,11.1,0,0,1,7.18,9.61a.38.38,0,0,1,0-.1,1.9,1.9,0,0,1,.46-2,.43.43,0,0,1,.1-.09A2,2,0,0,1,8,7.14L8.12,7l.4-.4h0L6.83,4.88,6,4.09ZM20.66,18.77h0Zm0,0h0ZM20,18.05h0Z"/></svg>