<svg xmlns="http://www.w3.org/2000/svg" viewBox="0 0 24 24"><path d="M22.31,3.76A1.79,1.79,0,0,0,21.79,3a2,2,0,0,0-.28-.19l-.06,0a1.88,1.88,0,0,0-.5-.18,1.77,1.77,0,0,0-.94.1L2.71,9.47A1.75,1.75,0,0,0,3,12.82l4.19.84V19a1.76,1.76,0,0,0,.3,1,1.66,1.66,0,0,0,.79.64,1.69,1.69,0,0,0,.66.13,2.19,2.19,0,0,0,.36,0,1.74,1.74,0,0,0,.88-.48l2.26-2.27L16,21a1.78,1.78,0,0,0,.8.4,2.19,2.19,0,0,0,.36,0,1.59,1.59,0,0,0,.53-.08,1.76,1.76,0,0,0,1.17-1.27l3.53-15.4A1.72,1.72,0,0,0,22.31,3.76Zm-7.6,3.15L8,11.77,4.23,11ZM9.2,18.34V15.05L11,16.59Zm7.78.89L9.8,12.92,20.13,5.46Z"/></svg>