<svg xmlns="http://www.w3.org/2000/svg" viewBox="0 0 24 24"><path d="M6.38,21.25C3,21.25,2,19.94,1.79,19.68a1,1,0,0,1-.12-.86,1,1,0,0,1,.6-.63A10.45,10.45,0,0,0,5.7,15.93c-1.59-1.36-4.6-4.85-4-11.52A1,1,0,0,1,3.41,3.8,17.65,17.65,0,0,0,9.88,7.74V7.5a4.72,4.72,0,0,1,7.34-4A4.89,4.89,0,0,1,18.66,5h2.72a1,1,0,0,1,.7,1.71L19.34,9.45A13,13,0,0,1,6.38,21.25ZM4.86,19.12a7.74,7.74,0,0,0,1.52.13,11,11,0,0,0,11-10.31,1,1,0,0,1,.29-.65L19,7h-.9a1,1,0,0,1-.91-.59,2.77,2.77,0,0,0-1-1.2,2.94,2.94,0,0,0-1.52-.46,2.73,2.73,0,0,0-1.91.78,2.77,2.77,0,0,0-.82,2V9a1,1,0,0,1-1.17,1A16.82,16.82,0,0,1,3.63,6.63c.21,5.92,3.83,8.16,4,8.26A1,1,0,0,1,8,16.3,9.81,9.81,0,0,1,4.86,19.12Z"/></svg>