<svg xmlns="http://www.w3.org/2000/svg" width="24" height="24" viewBox="0 0 24 24"><path d="M20.77,20.24h-.45a1,1,0,0,1,0-2h.19a6.36,6.36,0,0,0-2-3.79,1,1,0,0,1,1.18-1.58,8.15,8.15,0,0,1,2.78,5.54A1.78,1.78,0,0,1,20.77,20.24Zm-4.53,0h-13A1.78,1.78,0,0,1,1.5,18.42c0-2.83,2.16-6.15,8.24-6.15S18,15.59,18,18.42A1.78,1.78,0,0,1,16.24,20.24Zm-12.76-2H16c-.11-2.47-2.48-4-6.25-4S3.59,15.78,3.48,18.25Zm6.26-7.07a3.71,3.71,0,1,1,3.7-3.71A3.71,3.71,0,0,1,9.74,11.18Zm0-5.43a1.73,1.73,0,1,0,1.72,1.72A1.72,1.72,0,0,0,9.74,5.75Zm5.83,5.07A1,1,0,0,1,15.07,9a1.73,1.73,0,0,0,0-3,1,1,0,0,1,1-1.72,3.71,3.71,0,0,1,0,6.42A1,1,0,0,1,15.57,10.82Z"/></svg>