<svg xmlns="http://www.w3.org/2000/svg" viewBox="0 0 24 24"><path d="M13.2,18.4H4.8A3.4,3.4,0,0,1,1.4,15V9A3.41,3.41,0,0,1,4.8,5.6h8.4A3.4,3.4,0,0,1,16.6,9v.4l3.34-2.27.09,0A1.72,1.72,0,0,1,21.75,7a1.69,1.69,0,0,1,.83,1.49l0,7A1.61,1.61,0,0,1,21.82,17,1.74,1.74,0,0,1,20,16.9L16.6,14.44V15A3.4,3.4,0,0,1,13.2,18.4ZM4.8,7.6A1.4,1.4,0,0,0,3.4,9v6a1.4,1.4,0,0,0,1.4,1.4h8.4A1.4,1.4,0,0,0,14.6,15V9a1.4,1.4,0,0,0-1.4-1.4ZM16.6,12l4,2.87,0-5.74-4,2.71ZM12,11.2H9.6a1,1,0,1,1,0-2H12a1,1,0,0,1,0,2Z"/></svg>